<?xml version="1.0" encoding="UTF-8" standalone="no"?>
<!DOCTYPE svg PUBLIC "-//W3C//DTD SVG 1.1//EN"
 "http://www.w3.org/Graphics/SVG/1.1/DTD/svg11.dtd">
<!-- Generated by graphviz version 2.47.0 (20210316.0004)
 -->
<!-- Title: dependencies Pages: 1 -->
<svg width="677pt" height="211pt"
 viewBox="0.00 0.00 677.00 211.00" xmlns="http://www.w3.org/2000/svg" xmlns:xlink="http://www.w3.org/1999/xlink">
<g id="graph0" class="graph" transform="scale(1 1) rotate(0) translate(4 207)">
<title>dependencies</title>
<polygon fill="white" stroke="transparent" points="-4,4 -4,-207 673,-207 673,4 -4,4"/>
<text text-anchor="start" x="313.51" y="-42.4" font-family="Times-12" font-weight="bold" font-size="14.00">Legend</text>
<polygon fill="#ffffb3" stroke="transparent" points="100.5,-10 100.5,-30 120.5,-30 120.5,-10 100.5,-10"/>
<text text-anchor="start" x="124.13" y="-15.4" font-family="Times-12" font-size="14.00"> &#160;Declarations</text>
<polygon fill="#8dd3c7" stroke="transparent" points="213.5,-10 213.5,-30 233.5,-30 233.5,-10 213.5,-10"/>
<text text-anchor="start" x="237.23" y="-15.4" font-family="Times-12" font-size="14.00"> &#160;Module</text>
<polygon fill="#80b1d3" stroke="transparent" points="299.5,-10 299.5,-30 319.5,-30 319.5,-10 299.5,-10"/>
<text text-anchor="start" x="323.28" y="-15.4" font-family="Times-12" font-size="14.00"> &#160;Bootstrap</text>
<polygon fill="#fdb462" stroke="transparent" points="396.5,-10 396.5,-30 416.5,-30 416.5,-10 396.5,-10"/>
<text text-anchor="start" x="420.17" y="-15.4" font-family="Times-12" font-size="14.00"> &#160;Providers</text>
<polygon fill="#fb8072" stroke="transparent" points="492.5,-10 492.5,-30 512.5,-30 512.5,-10 492.5,-10"/>
<text text-anchor="start" x="516.23" y="-15.4" font-family="Times-12" font-size="14.00"> &#160;Exports</text>
<g id="clust1" class="cluster">
<title>cluster_SurveyersModule</title>
<polygon fill="none" stroke="black" stroke-dasharray="1,5" points="8,-70 8,-195 661,-195 661,-70 8,-70"/>
</g>
<g id="clust2" class="cluster">
<title>cluster_SurveyersModule_declarations</title>
<polygon fill="none" stroke="black" points="499,-78 499,-130 653,-130 653,-78 499,-78"/>
</g>
<g id="clust7" class="cluster">
<title>cluster_SurveyersModule_providers</title>
<polygon fill="none" stroke="black" points="317,-78 317,-130 491,-130 491,-78 317,-78"/>
</g>
<g id="clust4" class="cluster">
<title>cluster_SurveyersModule_imports</title>
<polygon fill="none" stroke="black" points="16,-78 16,-130 309,-130 309,-78 16,-78"/>
</g>
<!-- SurveyersComponent -->
<g id="node1" class="node">
<title>SurveyersComponent</title>
<polygon fill="#ffffb3" stroke="black" points="644.81,-122 507.19,-122 507.19,-86 644.81,-86 644.81,-122"/>
<text text-anchor="middle" x="576" y="-99.8" font-family="Times,serif" font-size="14.00">SurveyersComponent</text>
</g>
<!-- SurveyersModule -->
<g id="node2" class="node">
<title>SurveyersModule</title>
<polygon fill="#8dd3c7" stroke="black" points="385.53,-187 382.53,-191 361.53,-191 358.53,-187 270.47,-187 270.47,-151 385.53,-151 385.53,-187"/>
<text text-anchor="middle" x="328" y="-164.8" font-family="Times,serif" font-size="14.00">SurveyersModule</text>
</g>
<!-- SurveyersComponent&#45;&gt;SurveyersModule -->
<g id="edge1" class="edge">
<title>SurveyersComponent&#45;&gt;SurveyersModule</title>
<path fill="none" stroke="black" d="M576,-122.11C576,-141.34 576,-169 576,-169 576,-169 395.83,-169 395.83,-169"/>
<polygon fill="black" stroke="black" points="395.83,-165.5 385.83,-169 395.83,-172.5 395.83,-165.5"/>
</g>
<!-- SharedModule -->
<g id="node3" class="node">
<title>SharedModule</title>
<polygon fill="#8dd3c7" stroke="black" points="301.42,-122 298.42,-126 277.42,-126 274.42,-122 202.58,-122 202.58,-86 301.42,-86 301.42,-122"/>
<text text-anchor="middle" x="252" y="-99.8" font-family="Times,serif" font-size="14.00">SharedModule</text>
</g>
<!-- SharedModule&#45;&gt;SurveyersModule -->
<g id="edge2" class="edge">
<title>SharedModule&#45;&gt;SurveyersModule</title>
<path fill="none" stroke="black" d="M285.72,-122.11C285.72,-122.11 285.72,-140.99 285.72,-140.99"/>
<polygon fill="black" stroke="black" points="282.22,-140.99 285.72,-150.99 289.22,-140.99 282.22,-140.99"/>
</g>
<!-- SurveyersRoutingModule -->
<g id="node4" class="node">
<title>SurveyersRoutingModule</title>
<polygon fill="#8dd3c7" stroke="black" points="184.15,-122 181.15,-126 160.15,-126 157.15,-122 23.85,-122 23.85,-86 184.15,-86 184.15,-122"/>
<text text-anchor="middle" x="104" y="-99.8" font-family="Times,serif" font-size="14.00">SurveyersRoutingModule</text>
</g>
<!-- SurveyersRoutingModule&#45;&gt;SurveyersModule -->
<g id="edge3" class="edge">
<title>SurveyersRoutingModule&#45;&gt;SurveyersModule</title>
<path fill="none" stroke="black" d="M104,-122.11C104,-141.34 104,-169 104,-169 104,-169 260.31,-169 260.31,-169"/>
<polygon fill="black" stroke="black" points="260.31,-172.5 270.31,-169 260.31,-165.5 260.31,-172.5"/>
</g>
<!-- SurveyersService -->
<g id="node5" class="node">
<title>SurveyersService</title>
<ellipse fill="#fdb462" stroke="black" cx="404" cy="-104" rx="78.71" ry="18"/>
<text text-anchor="middle" x="404" y="-99.8" font-family="Times,serif" font-size="14.00">SurveyersService</text>
</g>
<!-- SurveyersService&#45;&gt;SurveyersModule -->
<g id="edge4" class="edge">
<title>SurveyersService&#45;&gt;SurveyersModule</title>
<path fill="none" stroke="black" d="M355.58,-118.43C355.58,-118.43 355.58,-140.89 355.58,-140.89"/>
<polygon fill="black" stroke="black" points="352.08,-140.89 355.58,-150.89 359.08,-140.89 352.08,-140.89"/>
</g>
</g>
</svg>
