<?xml version="1.0" encoding="UTF-8" standalone="no"?>
<!DOCTYPE svg PUBLIC "-//W3C//DTD SVG 1.1//EN"
 "http://www.w3.org/Graphics/SVG/1.1/DTD/svg11.dtd">
<!-- Generated by graphviz version 2.47.0 (20210316.0004)
 -->
<!-- Title: dependencies Pages: 1 -->
<svg width="652pt" height="211pt"
 viewBox="0.00 0.00 652.00 211.00" xmlns="http://www.w3.org/2000/svg" xmlns:xlink="http://www.w3.org/1999/xlink">
<g id="graph0" class="graph" transform="scale(1 1) rotate(0) translate(4 207)">
<title>dependencies</title>
<polygon fill="white" stroke="transparent" points="-4,4 -4,-207 648,-207 648,4 -4,4"/>
<text text-anchor="start" x="301.01" y="-42.4" font-family="Times-12" font-weight="bold" font-size="14.00">Legend</text>
<polygon fill="#ffffb3" stroke="transparent" points="88,-10 88,-30 108,-30 108,-10 88,-10"/>
<text text-anchor="start" x="111.63" y="-15.4" font-family="Times-12" font-size="14.00"> &#160;Declarations</text>
<polygon fill="#8dd3c7" stroke="transparent" points="201,-10 201,-30 221,-30 221,-10 201,-10"/>
<text text-anchor="start" x="224.73" y="-15.4" font-family="Times-12" font-size="14.00"> &#160;Module</text>
<polygon fill="#80b1d3" stroke="transparent" points="287,-10 287,-30 307,-30 307,-10 287,-10"/>
<text text-anchor="start" x="310.78" y="-15.4" font-family="Times-12" font-size="14.00"> &#160;Bootstrap</text>
<polygon fill="#fdb462" stroke="transparent" points="384,-10 384,-30 404,-30 404,-10 384,-10"/>
<text text-anchor="start" x="407.67" y="-15.4" font-family="Times-12" font-size="14.00"> &#160;Providers</text>
<polygon fill="#fb8072" stroke="transparent" points="480,-10 480,-30 500,-30 500,-10 480,-10"/>
<text text-anchor="start" x="503.73" y="-15.4" font-family="Times-12" font-size="14.00"> &#160;Exports</text>
<g id="clust1" class="cluster">
<title>cluster_PaymentModule</title>
<polygon fill="none" stroke="black" stroke-dasharray="1,5" points="8,-70 8,-195 636,-195 636,-70 8,-70"/>
</g>
<g id="clust2" class="cluster">
<title>cluster_PaymentModule_declarations</title>
<polygon fill="none" stroke="black" points="482,-78 482,-130 628,-130 628,-78 482,-78"/>
</g>
<g id="clust4" class="cluster">
<title>cluster_PaymentModule_imports</title>
<polygon fill="none" stroke="black" points="188,-78 188,-130 474,-130 474,-78 188,-78"/>
</g>
<g id="clust7" class="cluster">
<title>cluster_PaymentModule_providers</title>
<polygon fill="none" stroke="black" points="16,-78 16,-130 180,-130 180,-78 16,-78"/>
</g>
<!-- PaymentComponent -->
<g id="node1" class="node">
<title>PaymentComponent</title>
<polygon fill="#ffffb3" stroke="black" points="620.33,-122 489.67,-122 489.67,-86 620.33,-86 620.33,-122"/>
<text text-anchor="middle" x="555" y="-99.8" font-family="Times,serif" font-size="14.00">PaymentComponent</text>
</g>
<!-- PaymentModule -->
<g id="node2" class="node">
<title>PaymentModule</title>
<polygon fill="#8dd3c7" stroke="black" points="371.04,-187 368.04,-191 347.04,-191 344.04,-187 262.96,-187 262.96,-151 371.04,-151 371.04,-187"/>
<text text-anchor="middle" x="317" y="-164.8" font-family="Times,serif" font-size="14.00">PaymentModule</text>
</g>
<!-- PaymentComponent&#45;&gt;PaymentModule -->
<g id="edge1" class="edge">
<title>PaymentComponent&#45;&gt;PaymentModule</title>
<path fill="none" stroke="black" d="M555,-122.11C555,-141.34 555,-169 555,-169 555,-169 381.3,-169 381.3,-169"/>
<polygon fill="black" stroke="black" points="381.3,-165.5 371.3,-169 381.3,-172.5 381.3,-165.5"/>
</g>
<!-- PaymentRoutingModule -->
<g id="node3" class="node">
<title>PaymentRoutingModule</title>
<polygon fill="#8dd3c7" stroke="black" points="465.66,-122 462.66,-126 441.66,-126 438.66,-122 312.34,-122 312.34,-86 465.66,-86 465.66,-122"/>
<text text-anchor="middle" x="389" y="-99.8" font-family="Times,serif" font-size="14.00">PaymentRoutingModule</text>
</g>
<!-- PaymentRoutingModule&#45;&gt;PaymentModule -->
<g id="edge2" class="edge">
<title>PaymentRoutingModule&#45;&gt;PaymentModule</title>
<path fill="none" stroke="black" d="M341.72,-122.11C341.72,-122.11 341.72,-140.99 341.72,-140.99"/>
<polygon fill="black" stroke="black" points="338.22,-140.99 341.72,-150.99 345.22,-140.99 338.22,-140.99"/>
</g>
<!-- SharedModule -->
<g id="node4" class="node">
<title>SharedModule</title>
<polygon fill="#8dd3c7" stroke="black" points="294.42,-122 291.42,-126 270.42,-126 267.42,-122 195.58,-122 195.58,-86 294.42,-86 294.42,-122"/>
<text text-anchor="middle" x="245" y="-99.8" font-family="Times,serif" font-size="14.00">SharedModule</text>
</g>
<!-- SharedModule&#45;&gt;PaymentModule -->
<g id="edge3" class="edge">
<title>SharedModule&#45;&gt;PaymentModule</title>
<path fill="none" stroke="black" d="M278.47,-122.11C278.47,-122.11 278.47,-140.99 278.47,-140.99"/>
<polygon fill="black" stroke="black" points="274.97,-140.99 278.47,-150.99 281.97,-140.99 274.97,-140.99"/>
</g>
<!-- PaymentService -->
<g id="node5" class="node">
<title>PaymentService</title>
<ellipse fill="#fdb462" stroke="black" cx="98" cy="-104" rx="73.57" ry="18"/>
<text text-anchor="middle" x="98" y="-99.8" font-family="Times,serif" font-size="14.00">PaymentService</text>
</g>
<!-- PaymentService&#45;&gt;PaymentModule -->
<g id="edge4" class="edge">
<title>PaymentService&#45;&gt;PaymentModule</title>
<path fill="none" stroke="black" d="M98,-122.11C98,-141.34 98,-169 98,-169 98,-169 252.87,-169 252.87,-169"/>
<polygon fill="black" stroke="black" points="252.87,-172.5 262.87,-169 252.87,-165.5 252.87,-172.5"/>
</g>
</g>
</svg>
