<?xml version="1.0" encoding="UTF-8" standalone="no"?>
<!DOCTYPE svg PUBLIC "-//W3C//DTD SVG 1.1//EN"
 "http://www.w3.org/Graphics/SVG/1.1/DTD/svg11.dtd">
<!-- Generated by graphviz version 2.47.0 (20210316.0004)
 -->
<!-- Title: dependencies Pages: 1 -->
<svg width="1216pt" height="211pt"
 viewBox="0.00 0.00 1216.00 211.00" xmlns="http://www.w3.org/2000/svg" xmlns:xlink="http://www.w3.org/1999/xlink">
<g id="graph0" class="graph" transform="scale(1 1) rotate(0) translate(4 207)">
<title>dependencies</title>
<polygon fill="white" stroke="transparent" points="-4,4 -4,-207 1212,-207 1212,4 -4,4"/>
<text text-anchor="start" x="583.01" y="-42.4" font-family="Times-12" font-weight="bold" font-size="14.00">Legend</text>
<polygon fill="#ffffb3" stroke="transparent" points="370,-10 370,-30 390,-30 390,-10 370,-10"/>
<text text-anchor="start" x="393.63" y="-15.4" font-family="Times-12" font-size="14.00"> &#160;Declarations</text>
<polygon fill="#8dd3c7" stroke="transparent" points="483,-10 483,-30 503,-30 503,-10 483,-10"/>
<text text-anchor="start" x="506.73" y="-15.4" font-family="Times-12" font-size="14.00"> &#160;Module</text>
<polygon fill="#80b1d3" stroke="transparent" points="569,-10 569,-30 589,-30 589,-10 569,-10"/>
<text text-anchor="start" x="592.78" y="-15.4" font-family="Times-12" font-size="14.00"> &#160;Bootstrap</text>
<polygon fill="#fdb462" stroke="transparent" points="666,-10 666,-30 686,-30 686,-10 666,-10"/>
<text text-anchor="start" x="689.67" y="-15.4" font-family="Times-12" font-size="14.00"> &#160;Providers</text>
<polygon fill="#fb8072" stroke="transparent" points="762,-10 762,-30 782,-30 782,-10 762,-10"/>
<text text-anchor="start" x="785.73" y="-15.4" font-family="Times-12" font-size="14.00"> &#160;Exports</text>
<g id="clust1" class="cluster">
<title>cluster_CallCenterAdminModule</title>
<polygon fill="none" stroke="black" stroke-dasharray="1,5" points="8,-70 8,-195 1200,-195 1200,-70 8,-70"/>
</g>
<g id="clust9" class="cluster">
<title>cluster_CallCenterAdminModule_providers</title>
<polygon fill="none" stroke="black" points="958,-78 958,-130 1192,-130 1192,-78 958,-78"/>
</g>
<g id="clust2" class="cluster">
<title>cluster_CallCenterAdminModule_declarations</title>
<polygon fill="none" stroke="black" points="360,-78 360,-130 950,-130 950,-78 360,-78"/>
</g>
<g id="clust6" class="cluster">
<title>cluster_CallCenterAdminModule_imports</title>
<polygon fill="none" stroke="black" points="16,-78 16,-130 352,-130 352,-78 16,-78"/>
</g>
<!-- AssignmentDetailsComponent -->
<g id="node1" class="node">
<title>AssignmentDetailsComponent</title>
<polygon fill="#ffffb3" stroke="black" points="941.87,-122 754.13,-122 754.13,-86 941.87,-86 941.87,-122"/>
<text text-anchor="middle" x="848" y="-99.8" font-family="Times,serif" font-size="14.00">AssignmentDetailsComponent</text>
</g>
<!-- CallCenterAdminModule -->
<g id="node4" class="node">
<title>CallCenterAdminModule</title>
<polygon fill="#8dd3c7" stroke="black" points="633.59,-187 630.59,-191 609.59,-191 606.59,-187 474.41,-187 474.41,-151 633.59,-151 633.59,-187"/>
<text text-anchor="middle" x="554" y="-164.8" font-family="Times,serif" font-size="14.00">CallCenterAdminModule</text>
</g>
<!-- AssignmentDetailsComponent&#45;&gt;CallCenterAdminModule -->
<g id="edge1" class="edge">
<title>AssignmentDetailsComponent&#45;&gt;CallCenterAdminModule</title>
<path fill="none" stroke="black" d="M848,-122.02C848,-139.37 848,-163 848,-163 848,-163 643.56,-163 643.56,-163"/>
<polygon fill="black" stroke="black" points="643.56,-159.5 633.56,-163 643.56,-166.5 643.56,-159.5"/>
</g>
<!-- AssignmentListComponent -->
<g id="node2" class="node">
<title>AssignmentListComponent</title>
<polygon fill="#ffffb3" stroke="black" points="735.99,-122 566.01,-122 566.01,-86 735.99,-86 735.99,-122"/>
<text text-anchor="middle" x="651" y="-99.8" font-family="Times,serif" font-size="14.00">AssignmentListComponent</text>
</g>
<!-- AssignmentListComponent&#45;&gt;CallCenterAdminModule -->
<g id="edge2" class="edge">
<title>AssignmentListComponent&#45;&gt;CallCenterAdminModule</title>
<path fill="none" stroke="black" d="M599.77,-122.11C599.77,-122.11 599.77,-140.99 599.77,-140.99"/>
<polygon fill="black" stroke="black" points="596.27,-140.99 599.77,-150.99 603.27,-140.99 596.27,-140.99"/>
</g>
<!-- CallCenterAdminComponent -->
<g id="node3" class="node">
<title>CallCenterAdminComponent</title>
<polygon fill="#ffffb3" stroke="black" points="548.37,-122 367.63,-122 367.63,-86 548.37,-86 548.37,-122"/>
<text text-anchor="middle" x="458" y="-99.8" font-family="Times,serif" font-size="14.00">CallCenterAdminComponent</text>
</g>
<!-- CallCenterAdminComponent&#45;&gt;CallCenterAdminModule -->
<g id="edge3" class="edge">
<title>CallCenterAdminComponent&#45;&gt;CallCenterAdminModule</title>
<path fill="none" stroke="black" d="M511.45,-122.11C511.45,-122.11 511.45,-140.99 511.45,-140.99"/>
<polygon fill="black" stroke="black" points="507.95,-140.99 511.45,-150.99 514.95,-140.99 507.95,-140.99"/>
</g>
<!-- CallCenterAdminRoutingModule -->
<g id="node5" class="node">
<title>CallCenterAdminRoutingModule</title>
<polygon fill="#8dd3c7" stroke="black" points="344.2,-122 341.2,-126 320.2,-126 317.2,-122 139.8,-122 139.8,-86 344.2,-86 344.2,-122"/>
<text text-anchor="middle" x="242" y="-99.8" font-family="Times,serif" font-size="14.00">CallCenterAdminRoutingModule</text>
</g>
<!-- CallCenterAdminRoutingModule&#45;&gt;CallCenterAdminModule -->
<g id="edge4" class="edge">
<title>CallCenterAdminRoutingModule&#45;&gt;CallCenterAdminModule</title>
<path fill="none" stroke="black" d="M242,-122.02C242,-139.37 242,-163 242,-163 242,-163 464.06,-163 464.06,-163"/>
<polygon fill="black" stroke="black" points="464.06,-166.5 474.06,-163 464.06,-159.5 464.06,-166.5"/>
</g>
<!-- SharedModule -->
<g id="node6" class="node">
<title>SharedModule</title>
<polygon fill="#8dd3c7" stroke="black" points="122.42,-122 119.42,-126 98.42,-126 95.42,-122 23.58,-122 23.58,-86 122.42,-86 122.42,-122"/>
<text text-anchor="middle" x="73" y="-99.8" font-family="Times,serif" font-size="14.00">SharedModule</text>
</g>
<!-- SharedModule&#45;&gt;CallCenterAdminModule -->
<g id="edge5" class="edge">
<title>SharedModule&#45;&gt;CallCenterAdminModule</title>
<path fill="none" stroke="black" d="M73,-122.28C73,-143.32 73,-175 73,-175 73,-175 464.3,-175 464.3,-175"/>
<polygon fill="black" stroke="black" points="464.3,-178.5 474.3,-175 464.3,-171.5 464.3,-178.5"/>
</g>
<!-- CallCenterAdminService -->
<g id="node7" class="node">
<title>CallCenterAdminService</title>
<ellipse fill="#fdb462" stroke="black" cx="1075" cy="-104" rx="108.8" ry="18"/>
<text text-anchor="middle" x="1075" y="-99.8" font-family="Times,serif" font-size="14.00">CallCenterAdminService</text>
</g>
<!-- CallCenterAdminService&#45;&gt;CallCenterAdminModule -->
<g id="edge6" class="edge">
<title>CallCenterAdminService&#45;&gt;CallCenterAdminModule</title>
<path fill="none" stroke="black" d="M1075,-122.28C1075,-143.32 1075,-175 1075,-175 1075,-175 643.7,-175 643.7,-175"/>
<polygon fill="black" stroke="black" points="643.7,-171.5 633.7,-175 643.7,-178.5 643.7,-171.5"/>
</g>
</g>
</svg>
