<?xml version="1.0" encoding="UTF-8" standalone="no"?>
<!DOCTYPE svg PUBLIC "-//W3C//DTD SVG 1.1//EN"
 "http://www.w3.org/Graphics/SVG/1.1/DTD/svg11.dtd">
<!-- Generated by graphviz version 2.47.0 (20210316.0004)
 -->
<!-- Title: dependencies Pages: 1 -->
<svg width="603pt" height="211pt"
 viewBox="0.00 0.00 603.00 211.00" xmlns="http://www.w3.org/2000/svg" xmlns:xlink="http://www.w3.org/1999/xlink">
<g id="graph0" class="graph" transform="scale(1 1) rotate(0) translate(4 207)">
<title>dependencies</title>
<polygon fill="white" stroke="transparent" points="-4,4 -4,-207 599,-207 599,4 -4,4"/>
<text text-anchor="start" x="276.51" y="-42.4" font-family="Times-12" font-weight="bold" font-size="14.00">Legend</text>
<polygon fill="#ffffb3" stroke="transparent" points="63.5,-10 63.5,-30 83.5,-30 83.5,-10 63.5,-10"/>
<text text-anchor="start" x="87.13" y="-15.4" font-family="Times-12" font-size="14.00"> &#160;Declarations</text>
<polygon fill="#8dd3c7" stroke="transparent" points="176.5,-10 176.5,-30 196.5,-30 196.5,-10 176.5,-10"/>
<text text-anchor="start" x="200.23" y="-15.4" font-family="Times-12" font-size="14.00"> &#160;Module</text>
<polygon fill="#80b1d3" stroke="transparent" points="262.5,-10 262.5,-30 282.5,-30 282.5,-10 262.5,-10"/>
<text text-anchor="start" x="286.28" y="-15.4" font-family="Times-12" font-size="14.00"> &#160;Bootstrap</text>
<polygon fill="#fdb462" stroke="transparent" points="359.5,-10 359.5,-30 379.5,-30 379.5,-10 359.5,-10"/>
<text text-anchor="start" x="383.17" y="-15.4" font-family="Times-12" font-size="14.00"> &#160;Providers</text>
<polygon fill="#fb8072" stroke="transparent" points="455.5,-10 455.5,-30 475.5,-30 475.5,-10 455.5,-10"/>
<text text-anchor="start" x="479.23" y="-15.4" font-family="Times-12" font-size="14.00"> &#160;Exports</text>
<g id="clust1" class="cluster">
<title>cluster_HomeModule</title>
<polygon fill="none" stroke="black" stroke-dasharray="1,5" points="8,-70 8,-195 587,-195 587,-70 8,-70"/>
</g>
<g id="clust2" class="cluster">
<title>cluster_HomeModule_declarations</title>
<polygon fill="none" stroke="black" points="447,-78 447,-130 579,-130 579,-78 447,-78"/>
</g>
<g id="clust4" class="cluster">
<title>cluster_HomeModule_imports</title>
<polygon fill="none" stroke="black" points="168,-78 168,-130 439,-130 439,-78 168,-78"/>
</g>
<g id="clust7" class="cluster">
<title>cluster_HomeModule_providers</title>
<polygon fill="none" stroke="black" points="16,-78 16,-130 160,-130 160,-78 16,-78"/>
</g>
<!-- HomeComponent -->
<g id="node1" class="node">
<title>HomeComponent</title>
<polygon fill="#ffffb3" stroke="black" points="570.55,-122 455.45,-122 455.45,-86 570.55,-86 570.55,-122"/>
<text text-anchor="middle" x="513" y="-99.8" font-family="Times,serif" font-size="14.00">HomeComponent</text>
</g>
<!-- HomeModule -->
<g id="node2" class="node">
<title>HomeModule</title>
<polygon fill="#8dd3c7" stroke="black" points="339.76,-187 336.76,-191 315.76,-191 312.76,-187 246.24,-187 246.24,-151 339.76,-151 339.76,-187"/>
<text text-anchor="middle" x="293" y="-164.8" font-family="Times,serif" font-size="14.00">HomeModule</text>
</g>
<!-- HomeComponent&#45;&gt;HomeModule -->
<g id="edge1" class="edge">
<title>HomeComponent&#45;&gt;HomeModule</title>
<path fill="none" stroke="black" d="M513,-122.11C513,-141.34 513,-169 513,-169 513,-169 349.93,-169 349.93,-169"/>
<polygon fill="black" stroke="black" points="349.93,-165.5 339.93,-169 349.93,-172.5 349.93,-165.5"/>
</g>
<!-- HomeRoutingModule -->
<g id="node3" class="node">
<title>HomeRoutingModule</title>
<polygon fill="#8dd3c7" stroke="black" points="431.38,-122 428.38,-126 407.38,-126 404.38,-122 292.62,-122 292.62,-86 431.38,-86 431.38,-122"/>
<text text-anchor="middle" x="362" y="-99.8" font-family="Times,serif" font-size="14.00">HomeRoutingModule</text>
</g>
<!-- HomeRoutingModule&#45;&gt;HomeModule -->
<g id="edge2" class="edge">
<title>HomeRoutingModule&#45;&gt;HomeModule</title>
<path fill="none" stroke="black" d="M316.22,-122.11C316.22,-122.11 316.22,-140.99 316.22,-140.99"/>
<polygon fill="black" stroke="black" points="312.72,-140.99 316.22,-150.99 319.72,-140.99 312.72,-140.99"/>
</g>
<!-- SharedModule -->
<g id="node4" class="node">
<title>SharedModule</title>
<polygon fill="#8dd3c7" stroke="black" points="274.42,-122 271.42,-126 250.42,-126 247.42,-122 175.58,-122 175.58,-86 274.42,-86 274.42,-122"/>
<text text-anchor="middle" x="225" y="-99.8" font-family="Times,serif" font-size="14.00">SharedModule</text>
</g>
<!-- SharedModule&#45;&gt;HomeModule -->
<g id="edge3" class="edge">
<title>SharedModule&#45;&gt;HomeModule</title>
<path fill="none" stroke="black" d="M260.17,-122.11C260.17,-122.11 260.17,-140.99 260.17,-140.99"/>
<polygon fill="black" stroke="black" points="256.67,-140.99 260.17,-150.99 263.67,-140.99 256.67,-140.99"/>
</g>
<!-- HomeService -->
<g id="node5" class="node">
<title>HomeService</title>
<ellipse fill="#fdb462" stroke="black" cx="88" cy="-104" rx="63.68" ry="18"/>
<text text-anchor="middle" x="88" y="-99.8" font-family="Times,serif" font-size="14.00">HomeService</text>
</g>
<!-- HomeService&#45;&gt;HomeModule -->
<g id="edge4" class="edge">
<title>HomeService&#45;&gt;HomeModule</title>
<path fill="none" stroke="black" d="M88,-122.11C88,-141.34 88,-169 88,-169 88,-169 236.23,-169 236.23,-169"/>
<polygon fill="black" stroke="black" points="236.23,-172.5 246.23,-169 236.23,-165.5 236.23,-172.5"/>
</g>
</g>
</svg>
