<?xml version="1.0" encoding="UTF-8" standalone="no"?>
<!DOCTYPE svg PUBLIC "-//W3C//DTD SVG 1.1//EN"
 "http://www.w3.org/Graphics/SVG/1.1/DTD/svg11.dtd">
<!-- Generated by graphviz version 2.47.0 (20210316.0004)
 -->
<!-- Title: dependencies Pages: 1 -->
<svg width="2000pt" height="211pt"
 viewBox="0.00 0.00 2000.00 211.00" xmlns="http://www.w3.org/2000/svg" xmlns:xlink="http://www.w3.org/1999/xlink">
<g id="graph0" class="graph" transform="scale(1 1) rotate(0) translate(4 207)">
<title>dependencies</title>
<polygon fill="white" stroke="transparent" points="-4,4 -4,-207 1996,-207 1996,4 -4,4"/>
<text text-anchor="start" x="975.01" y="-42.4" font-family="Times-12" font-weight="bold" font-size="14.00">Legend</text>
<polygon fill="#ffffb3" stroke="transparent" points="762,-10 762,-30 782,-30 782,-10 762,-10"/>
<text text-anchor="start" x="785.63" y="-15.4" font-family="Times-12" font-size="14.00"> &#160;Declarations</text>
<polygon fill="#8dd3c7" stroke="transparent" points="875,-10 875,-30 895,-30 895,-10 875,-10"/>
<text text-anchor="start" x="898.73" y="-15.4" font-family="Times-12" font-size="14.00"> &#160;Module</text>
<polygon fill="#80b1d3" stroke="transparent" points="961,-10 961,-30 981,-30 981,-10 961,-10"/>
<text text-anchor="start" x="984.78" y="-15.4" font-family="Times-12" font-size="14.00"> &#160;Bootstrap</text>
<polygon fill="#fdb462" stroke="transparent" points="1058,-10 1058,-30 1078,-30 1078,-10 1058,-10"/>
<text text-anchor="start" x="1081.67" y="-15.4" font-family="Times-12" font-size="14.00"> &#160;Providers</text>
<polygon fill="#fb8072" stroke="transparent" points="1154,-10 1154,-30 1174,-30 1174,-10 1154,-10"/>
<text text-anchor="start" x="1177.73" y="-15.4" font-family="Times-12" font-size="14.00"> &#160;Exports</text>
<g id="clust1" class="cluster">
<title>cluster_DistributionModule</title>
<polygon fill="none" stroke="black" stroke-dasharray="1,5" points="8,-70 8,-195 1984,-195 1984,-70 8,-70"/>
</g>
<g id="clust2" class="cluster">
<title>cluster_DistributionModule_declarations</title>
<polygon fill="none" stroke="black" points="526,-78 526,-130 1976,-130 1976,-78 526,-78"/>
</g>
<g id="clust10" class="cluster">
<title>cluster_DistributionModule_imports</title>
<polygon fill="none" stroke="black" points="214,-78 214,-130 518,-130 518,-78 214,-78"/>
</g>
<g id="clust13" class="cluster">
<title>cluster_DistributionModule_providers</title>
<polygon fill="none" stroke="black" points="16,-78 16,-130 206,-130 206,-78 16,-78"/>
</g>
<!-- AssignDistributionComponent -->
<g id="node1" class="node">
<title>AssignDistributionComponent</title>
<polygon fill="#ffffb3" stroke="black" points="1967.88,-122 1780.12,-122 1780.12,-86 1967.88,-86 1967.88,-122"/>
<text text-anchor="middle" x="1874" y="-99.8" font-family="Times,serif" font-size="14.00">AssignDistributionComponent</text>
</g>
<!-- DistributionModule -->
<g id="node8" class="node">
<title>DistributionModule</title>
<polygon fill="#8dd3c7" stroke="black" points="1036.71,-187 1033.71,-191 1012.71,-191 1009.71,-187 909.29,-187 909.29,-151 1036.71,-151 1036.71,-187"/>
<text text-anchor="middle" x="973" y="-164.8" font-family="Times,serif" font-size="14.00">DistributionModule</text>
</g>
<!-- AssignDistributionComponent&#45;&gt;DistributionModule -->
<g id="edge1" class="edge">
<title>AssignDistributionComponent&#45;&gt;DistributionModule</title>
<path fill="none" stroke="black" d="M1874,-122.01C1874,-144.49 1874,-180 1874,-180 1874,-180 1046.72,-180 1046.72,-180"/>
<polygon fill="black" stroke="black" points="1046.72,-176.5 1036.72,-180 1046.72,-183.5 1046.72,-176.5"/>
</g>
<!-- AssignSpotchecksComponent -->
<g id="node2" class="node">
<title>AssignSpotchecksComponent</title>
<polygon fill="#ffffb3" stroke="black" points="1761.98,-122 1578.02,-122 1578.02,-86 1761.98,-86 1761.98,-122"/>
<text text-anchor="middle" x="1670" y="-99.8" font-family="Times,serif" font-size="14.00">AssignSpotchecksComponent</text>
</g>
<!-- AssignSpotchecksComponent&#45;&gt;DistributionModule -->
<g id="edge2" class="edge">
<title>AssignSpotchecksComponent&#45;&gt;DistributionModule</title>
<path fill="none" stroke="black" d="M1670,-122.13C1670,-142.57 1670,-173 1670,-173 1670,-173 1046.7,-173 1046.7,-173"/>
<polygon fill="black" stroke="black" points="1046.7,-169.5 1036.7,-173 1046.7,-176.5 1046.7,-169.5"/>
</g>
<!-- DistributionComponent -->
<g id="node3" class="node">
<title>DistributionComponent</title>
<polygon fill="#ffffb3" stroke="black" points="1560.5,-122 1411.5,-122 1411.5,-86 1560.5,-86 1560.5,-122"/>
<text text-anchor="middle" x="1486" y="-99.8" font-family="Times,serif" font-size="14.00">DistributionComponent</text>
</g>
<!-- DistributionComponent&#45;&gt;DistributionModule -->
<g id="edge3" class="edge">
<title>DistributionComponent&#45;&gt;DistributionModule</title>
<path fill="none" stroke="black" d="M1486,-122.27C1486,-140.56 1486,-166 1486,-166 1486,-166 1046.68,-166 1046.68,-166"/>
<polygon fill="black" stroke="black" points="1046.68,-162.5 1036.68,-166 1046.68,-169.5 1046.68,-162.5"/>
</g>
<!-- LandingDistributionComponent -->
<g id="node4" class="node">
<title>LandingDistributionComponent</title>
<polygon fill="#ffffb3" stroke="black" points="1393.66,-122 1198.34,-122 1198.34,-86 1393.66,-86 1393.66,-122"/>
<text text-anchor="middle" x="1296" y="-99.8" font-family="Times,serif" font-size="14.00">LandingDistributionComponent</text>
</g>
<!-- LandingDistributionComponent&#45;&gt;DistributionModule -->
<g id="edge4" class="edge">
<title>LandingDistributionComponent&#45;&gt;DistributionModule</title>
<path fill="none" stroke="black" d="M1296,-122.01C1296,-138.05 1296,-159 1296,-159 1296,-159 1046.81,-159 1046.81,-159"/>
<polygon fill="black" stroke="black" points="1046.81,-155.5 1036.81,-159 1046.81,-162.5 1046.81,-155.5"/>
</g>
<!-- ReassignDistributionComponent -->
<g id="node5" class="node">
<title>ReassignDistributionComponent</title>
<polygon fill="#ffffb3" stroke="black" points="1179.54,-122 980.46,-122 980.46,-86 1179.54,-86 1179.54,-122"/>
<text text-anchor="middle" x="1080" y="-99.8" font-family="Times,serif" font-size="14.00">ReassignDistributionComponent</text>
</g>
<!-- ReassignDistributionComponent&#45;&gt;DistributionModule -->
<g id="edge5" class="edge">
<title>ReassignDistributionComponent&#45;&gt;DistributionModule</title>
<path fill="none" stroke="black" d="M1008.42,-122.11C1008.42,-122.11 1008.42,-140.99 1008.42,-140.99"/>
<polygon fill="black" stroke="black" points="1004.92,-140.99 1008.42,-150.99 1011.92,-140.99 1004.92,-140.99"/>
</g>
<!-- ReassignSupervisorComponent -->
<g id="node6" class="node">
<title>ReassignSupervisorComponent</title>
<polygon fill="#ffffb3" stroke="black" points="962.03,-122 769.97,-122 769.97,-86 962.03,-86 962.03,-122"/>
<text text-anchor="middle" x="866" y="-99.8" font-family="Times,serif" font-size="14.00">ReassignSupervisorComponent</text>
</g>
<!-- ReassignSupervisorComponent&#45;&gt;DistributionModule -->
<g id="edge6" class="edge">
<title>ReassignSupervisorComponent&#45;&gt;DistributionModule</title>
<path fill="none" stroke="black" d="M935.83,-122.11C935.83,-122.11 935.83,-140.99 935.83,-140.99"/>
<polygon fill="black" stroke="black" points="932.33,-140.99 935.83,-150.99 939.33,-140.99 932.33,-140.99"/>
</g>
<!-- RescheduleApplicationsComponent -->
<g id="node7" class="node">
<title>RescheduleApplicationsComponent</title>
<polygon fill="#ffffb3" stroke="black" points="751.91,-122 534.09,-122 534.09,-86 751.91,-86 751.91,-122"/>
<text text-anchor="middle" x="643" y="-99.8" font-family="Times,serif" font-size="14.00">RescheduleApplicationsComponent</text>
</g>
<!-- RescheduleApplicationsComponent&#45;&gt;DistributionModule -->
<g id="edge7" class="edge">
<title>RescheduleApplicationsComponent&#45;&gt;DistributionModule</title>
<path fill="none" stroke="black" d="M643,-122.01C643,-138.05 643,-159 643,-159 643,-159 899.37,-159 899.37,-159"/>
<polygon fill="black" stroke="black" points="899.37,-162.5 909.37,-159 899.37,-155.5 899.37,-162.5"/>
</g>
<!-- DistributionRoutingModule -->
<g id="node9" class="node">
<title>DistributionRoutingModule</title>
<polygon fill="#8dd3c7" stroke="black" points="510.33,-122 507.33,-126 486.33,-126 483.33,-122 337.67,-122 337.67,-86 510.33,-86 510.33,-122"/>
<text text-anchor="middle" x="424" y="-99.8" font-family="Times,serif" font-size="14.00">DistributionRoutingModule</text>
</g>
<!-- DistributionRoutingModule&#45;&gt;DistributionModule -->
<g id="edge8" class="edge">
<title>DistributionRoutingModule&#45;&gt;DistributionModule</title>
<path fill="none" stroke="black" d="M424,-122.27C424,-140.56 424,-166 424,-166 424,-166 899.22,-166 899.22,-166"/>
<polygon fill="black" stroke="black" points="899.22,-169.5 909.22,-166 899.22,-162.5 899.22,-169.5"/>
</g>
<!-- SharedModule -->
<g id="node10" class="node">
<title>SharedModule</title>
<polygon fill="#8dd3c7" stroke="black" points="320.42,-122 317.42,-126 296.42,-126 293.42,-122 221.58,-122 221.58,-86 320.42,-86 320.42,-122"/>
<text text-anchor="middle" x="271" y="-99.8" font-family="Times,serif" font-size="14.00">SharedModule</text>
</g>
<!-- SharedModule&#45;&gt;DistributionModule -->
<g id="edge9" class="edge">
<title>SharedModule&#45;&gt;DistributionModule</title>
<path fill="none" stroke="black" d="M271,-122.13C271,-142.57 271,-173 271,-173 271,-173 899.15,-173 899.15,-173"/>
<polygon fill="black" stroke="black" points="899.15,-176.5 909.15,-173 899.15,-169.5 899.15,-176.5"/>
</g>
<!-- DistributionService -->
<g id="node11" class="node">
<title>DistributionService</title>
<ellipse fill="#fdb462" stroke="black" cx="111" cy="-104" rx="86.83" ry="18"/>
<text text-anchor="middle" x="111" y="-99.8" font-family="Times,serif" font-size="14.00">DistributionService</text>
</g>
<!-- DistributionService&#45;&gt;DistributionModule -->
<g id="edge10" class="edge">
<title>DistributionService&#45;&gt;DistributionModule</title>
<path fill="none" stroke="black" d="M111,-122.01C111,-144.49 111,-180 111,-180 111,-180 899.27,-180 899.27,-180"/>
<polygon fill="black" stroke="black" points="899.27,-183.5 909.27,-180 899.26,-176.5 899.27,-183.5"/>
</g>
</g>
</svg>
