<?xml version="1.0" encoding="UTF-8" standalone="no"?>
<!DOCTYPE svg PUBLIC "-//W3C//DTD SVG 1.1//EN"
 "http://www.w3.org/Graphics/SVG/1.1/DTD/svg11.dtd">
<!-- Generated by graphviz version 2.47.0 (20210316.0004)
 -->
<!-- Title: dependencies Pages: 1 -->
<svg width="2402pt" height="211pt"
 viewBox="0.00 0.00 2402.00 211.00" xmlns="http://www.w3.org/2000/svg" xmlns:xlink="http://www.w3.org/1999/xlink">
<g id="graph0" class="graph" transform="scale(1 1) rotate(0) translate(4 207)">
<title>dependencies</title>
<polygon fill="white" stroke="transparent" points="-4,4 -4,-207 2398,-207 2398,4 -4,4"/>
<text text-anchor="start" x="1176.01" y="-42.4" font-family="Times-12" font-weight="bold" font-size="14.00">Legend</text>
<polygon fill="#ffffb3" stroke="transparent" points="963,-10 963,-30 983,-30 983,-10 963,-10"/>
<text text-anchor="start" x="986.63" y="-15.4" font-family="Times-12" font-size="14.00"> &#160;Declarations</text>
<polygon fill="#8dd3c7" stroke="transparent" points="1076,-10 1076,-30 1096,-30 1096,-10 1076,-10"/>
<text text-anchor="start" x="1099.73" y="-15.4" font-family="Times-12" font-size="14.00"> &#160;Module</text>
<polygon fill="#80b1d3" stroke="transparent" points="1162,-10 1162,-30 1182,-30 1182,-10 1162,-10"/>
<text text-anchor="start" x="1185.78" y="-15.4" font-family="Times-12" font-size="14.00"> &#160;Bootstrap</text>
<polygon fill="#fdb462" stroke="transparent" points="1259,-10 1259,-30 1279,-30 1279,-10 1259,-10"/>
<text text-anchor="start" x="1282.67" y="-15.4" font-family="Times-12" font-size="14.00"> &#160;Providers</text>
<polygon fill="#fb8072" stroke="transparent" points="1355,-10 1355,-30 1375,-30 1375,-10 1355,-10"/>
<text text-anchor="start" x="1378.73" y="-15.4" font-family="Times-12" font-size="14.00"> &#160;Exports</text>
<g id="clust1" class="cluster">
<title>cluster_ExternalProgramModule</title>
<polygon fill="none" stroke="black" stroke-dasharray="1,5" points="8,-70 8,-195 2386,-195 2386,-70 8,-70"/>
</g>
<g id="clust2" class="cluster">
<title>cluster_ExternalProgramModule_declarations</title>
<polygon fill="none" stroke="black" points="1511,-78 1511,-130 2378,-130 2378,-78 1511,-78"/>
</g>
<g id="clust7" class="cluster">
<title>cluster_ExternalProgramModule_imports</title>
<polygon fill="none" stroke="black" points="1027,-78 1027,-130 1503,-130 1503,-78 1027,-78"/>
</g>
<g id="clust10" class="cluster">
<title>cluster_ExternalProgramModule_providers</title>
<polygon fill="none" stroke="black" points="16,-78 16,-130 1019,-130 1019,-78 16,-78"/>
</g>
<!-- BeneficiaryListComponent -->
<g id="node1" class="node">
<title>BeneficiaryListComponent</title>
<polygon fill="#ffffb3" stroke="black" points="2370.41,-122 2201.59,-122 2201.59,-86 2370.41,-86 2370.41,-122"/>
<text text-anchor="middle" x="2286" y="-99.8" font-family="Times,serif" font-size="14.00">BeneficiaryListComponent</text>
</g>
<!-- ExternalProgramModule -->
<g id="node5" class="node">
<title>ExternalProgramModule</title>
<polygon fill="#8dd3c7" stroke="black" points="1226.68,-187 1223.68,-191 1202.68,-191 1199.68,-187 1071.32,-187 1071.32,-151 1226.68,-151 1226.68,-187"/>
<text text-anchor="middle" x="1149" y="-164.8" font-family="Times,serif" font-size="14.00">ExternalProgramModule</text>
</g>
<!-- BeneficiaryListComponent&#45;&gt;ExternalProgramModule -->
<g id="edge1" class="edge">
<title>BeneficiaryListComponent&#45;&gt;ExternalProgramModule</title>
<path fill="none" stroke="black" d="M2286,-122.09C2286,-145.13 2286,-182 2286,-182 2286,-182 1236.7,-182 1236.7,-182"/>
<polygon fill="black" stroke="black" points="1236.7,-178.5 1226.7,-182 1236.7,-185.5 1236.7,-178.5"/>
</g>
<!-- ExternalProgramComponent -->
<g id="node2" class="node">
<title>ExternalProgramComponent</title>
<polygon fill="#ffffb3" stroke="black" points="2183.47,-122 2006.53,-122 2006.53,-86 2183.47,-86 2183.47,-122"/>
<text text-anchor="middle" x="2095" y="-99.8" font-family="Times,serif" font-size="14.00">ExternalProgramComponent</text>
</g>
<!-- ExternalProgramComponent&#45;&gt;ExternalProgramModule -->
<g id="edge2" class="edge">
<title>ExternalProgramComponent&#45;&gt;ExternalProgramModule</title>
<path fill="none" stroke="black" d="M2095,-122.28C2095,-143.32 2095,-175 2095,-175 2095,-175 1236.82,-175 1236.82,-175"/>
<polygon fill="black" stroke="black" points="1236.82,-171.5 1226.82,-175 1236.82,-178.5 1236.82,-171.5"/>
</g>
<!-- ExternalProgramGenerateComponent -->
<g id="node3" class="node">
<title>ExternalProgramGenerateComponent</title>
<polygon fill="#ffffb3" stroke="black" points="1988.98,-122 1761.02,-122 1761.02,-86 1988.98,-86 1988.98,-122"/>
<text text-anchor="middle" x="1875" y="-99.8" font-family="Times,serif" font-size="14.00">ExternalProgramGenerateComponent</text>
</g>
<!-- ExternalProgramGenerateComponent&#45;&gt;ExternalProgramModule -->
<g id="edge3" class="edge">
<title>ExternalProgramGenerateComponent&#45;&gt;ExternalProgramModule</title>
<path fill="none" stroke="black" d="M1875,-122.11C1875,-141.34 1875,-169 1875,-169 1875,-169 1236.69,-169 1236.69,-169"/>
<polygon fill="black" stroke="black" points="1236.69,-165.5 1226.69,-169 1236.69,-172.5 1236.69,-165.5"/>
</g>
<!-- LandingExternalProgramComponent -->
<g id="node4" class="node">
<title>LandingExternalProgramComponent</title>
<polygon fill="#ffffb3" stroke="black" points="1742.62,-122 1519.38,-122 1519.38,-86 1742.62,-86 1742.62,-122"/>
<text text-anchor="middle" x="1631" y="-99.8" font-family="Times,serif" font-size="14.00">LandingExternalProgramComponent</text>
</g>
<!-- LandingExternalProgramComponent&#45;&gt;ExternalProgramModule -->
<g id="edge4" class="edge">
<title>LandingExternalProgramComponent&#45;&gt;ExternalProgramModule</title>
<path fill="none" stroke="black" d="M1631,-122.02C1631,-139.37 1631,-163 1631,-163 1631,-163 1236.71,-163 1236.71,-163"/>
<polygon fill="black" stroke="black" points="1236.71,-159.5 1226.71,-163 1236.71,-166.5 1236.71,-159.5"/>
</g>
<!-- ExtenralProgramRoutingModule -->
<g id="node6" class="node">
<title>ExtenralProgramRoutingModule</title>
<polygon fill="#8dd3c7" stroke="black" points="1495.3,-122 1492.3,-126 1471.3,-126 1468.3,-122 1294.7,-122 1294.7,-86 1495.3,-86 1495.3,-122"/>
<text text-anchor="middle" x="1395" y="-99.8" font-family="Times,serif" font-size="14.00">ExtenralProgramRoutingModule</text>
</g>
<!-- ExtenralProgramRoutingModule&#45;&gt;ExternalProgramModule -->
<g id="edge5" class="edge">
<title>ExtenralProgramRoutingModule&#45;&gt;ExternalProgramModule</title>
<path fill="none" stroke="black" d="M1395,-122.24C1395,-137.57 1395,-157 1395,-157 1395,-157 1236.84,-157 1236.84,-157"/>
<polygon fill="black" stroke="black" points="1236.84,-153.5 1226.84,-157 1236.84,-160.5 1236.84,-153.5"/>
</g>
<!-- HouseholdsModule -->
<g id="node7" class="node">
<title>HouseholdsModule</title>
<polygon fill="#8dd3c7" stroke="black" points="1276.65,-122 1273.65,-126 1252.65,-126 1249.65,-122 1151.35,-122 1151.35,-86 1276.65,-86 1276.65,-122"/>
<text text-anchor="middle" x="1214" y="-99.8" font-family="Times,serif" font-size="14.00">HouseholdsModule</text>
</g>
<!-- HouseholdsModule&#45;&gt;ExternalProgramModule -->
<g id="edge6" class="edge">
<title>HouseholdsModule&#45;&gt;ExternalProgramModule</title>
<path fill="none" stroke="black" d="M1188.88,-122.11C1188.88,-122.11 1188.88,-140.99 1188.88,-140.99"/>
<polygon fill="black" stroke="black" points="1185.38,-140.99 1188.88,-150.99 1192.38,-140.99 1185.38,-140.99"/>
</g>
<!-- SharedModule -->
<g id="node8" class="node">
<title>SharedModule</title>
<polygon fill="#8dd3c7" stroke="black" points="1133.42,-122 1130.42,-126 1109.42,-126 1106.42,-122 1034.58,-122 1034.58,-86 1133.42,-86 1133.42,-122"/>
<text text-anchor="middle" x="1084" y="-99.8" font-family="Times,serif" font-size="14.00">SharedModule</text>
</g>
<!-- SharedModule&#45;&gt;ExternalProgramModule -->
<g id="edge7" class="edge">
<title>SharedModule&#45;&gt;ExternalProgramModule</title>
<path fill="none" stroke="black" d="M1102.31,-122.11C1102.31,-122.11 1102.31,-140.99 1102.31,-140.99"/>
<polygon fill="black" stroke="black" points="1098.81,-140.99 1102.31,-150.99 1105.81,-140.99 1098.81,-140.99"/>
</g>
<!-- CampaignsService -->
<g id="node9" class="node">
<title>CampaignsService</title>
<ellipse fill="#fdb462" stroke="black" cx="928" cy="-104" rx="83.38" ry="18"/>
<text text-anchor="middle" x="928" y="-99.8" font-family="Times,serif" font-size="14.00">CampaignsService</text>
</g>
<!-- CampaignsService&#45;&gt;ExternalProgramModule -->
<g id="edge8" class="edge">
<title>CampaignsService&#45;&gt;ExternalProgramModule</title>
<path fill="none" stroke="black" d="M928,-122.24C928,-137.57 928,-157 928,-157 928,-157 1061.39,-157 1061.39,-157"/>
<polygon fill="black" stroke="black" points="1061.39,-160.5 1071.39,-157 1061.39,-153.5 1061.39,-160.5"/>
</g>
<!-- CampaignsTemplatesService -->
<g id="node10" class="node">
<title>CampaignsTemplatesService</title>
<ellipse fill="#fdb462" stroke="black" cx="703" cy="-104" rx="123.83" ry="18"/>
<text text-anchor="middle" x="703" y="-99.8" font-family="Times,serif" font-size="14.00">CampaignsTemplatesService</text>
</g>
<!-- CampaignsTemplatesService&#45;&gt;ExternalProgramModule -->
<g id="edge9" class="edge">
<title>CampaignsTemplatesService&#45;&gt;ExternalProgramModule</title>
<path fill="none" stroke="black" d="M703,-122.02C703,-139.37 703,-163 703,-163 703,-163 1061.31,-163 1061.31,-163"/>
<polygon fill="black" stroke="black" points="1061.31,-166.5 1071.31,-163 1061.31,-159.5 1061.31,-166.5"/>
</g>
<!-- ExternalProgramService -->
<g id="node11" class="node">
<title>ExternalProgramService</title>
<ellipse fill="#fdb462" stroke="black" cx="455" cy="-104" rx="105.92" ry="18"/>
<text text-anchor="middle" x="455" y="-99.8" font-family="Times,serif" font-size="14.00">ExternalProgramService</text>
</g>
<!-- ExternalProgramService&#45;&gt;ExternalProgramModule -->
<g id="edge10" class="edge">
<title>ExternalProgramService&#45;&gt;ExternalProgramModule</title>
<path fill="none" stroke="black" d="M455,-122.11C455,-141.34 455,-169 455,-169 455,-169 1061.07,-169 1061.07,-169"/>
<polygon fill="black" stroke="black" points="1061.07,-172.5 1071.07,-169 1061.07,-165.5 1061.07,-172.5"/>
</g>
<!-- HouseholdsService -->
<g id="node12" class="node">
<title>HouseholdsService</title>
<ellipse fill="#fdb462" stroke="black" cx="245" cy="-104" rx="85.67" ry="18"/>
<text text-anchor="middle" x="245" y="-99.8" font-family="Times,serif" font-size="14.00">HouseholdsService</text>
</g>
<!-- HouseholdsService&#45;&gt;ExternalProgramModule -->
<g id="edge11" class="edge">
<title>HouseholdsService&#45;&gt;ExternalProgramModule</title>
<path fill="none" stroke="black" d="M245,-122.28C245,-143.32 245,-175 245,-175 245,-175 1061.14,-175 1061.14,-175"/>
<polygon fill="black" stroke="black" points="1061.14,-178.5 1071.14,-175 1061.14,-171.5 1061.14,-178.5"/>
</g>
<!-- UtilsService -->
<g id="node13" class="node">
<title>UtilsService</title>
<ellipse fill="#fdb462" stroke="black" cx="83" cy="-104" rx="58.54" ry="18"/>
<text text-anchor="middle" x="83" y="-99.8" font-family="Times,serif" font-size="14.00">UtilsService</text>
</g>
<!-- UtilsService&#45;&gt;ExternalProgramModule -->
<g id="edge12" class="edge">
<title>UtilsService&#45;&gt;ExternalProgramModule</title>
<path fill="none" stroke="black" d="M83,-122.09C83,-145.13 83,-182 83,-182 83,-182 1061.05,-182 1061.05,-182"/>
<polygon fill="black" stroke="black" points="1061.05,-185.5 1071.05,-182 1061.05,-178.5 1061.05,-185.5"/>
</g>
</g>
</svg>
