<?xml version="1.0" encoding="UTF-8" standalone="no"?>
<!DOCTYPE svg PUBLIC "-//W3C//DTD SVG 1.1//EN"
 "http://www.w3.org/Graphics/SVG/1.1/DTD/svg11.dtd">
<!-- Generated by graphviz version 2.47.0 (20210316.0004)
 -->
<!-- Title: dependencies Pages: 1 -->
<svg width="698pt" height="211pt"
 viewBox="0.00 0.00 698.00 211.00" xmlns="http://www.w3.org/2000/svg" xmlns:xlink="http://www.w3.org/1999/xlink">
<g id="graph0" class="graph" transform="scale(1 1) rotate(0) translate(4 207)">
<title>dependencies</title>
<polygon fill="white" stroke="transparent" points="-4,4 -4,-207 694,-207 694,4 -4,4"/>
<text text-anchor="start" x="324.01" y="-42.4" font-family="Times-12" font-weight="bold" font-size="14.00">Legend</text>
<polygon fill="#ffffb3" stroke="transparent" points="111,-10 111,-30 131,-30 131,-10 111,-10"/>
<text text-anchor="start" x="134.63" y="-15.4" font-family="Times-12" font-size="14.00"> &#160;Declarations</text>
<polygon fill="#8dd3c7" stroke="transparent" points="224,-10 224,-30 244,-30 244,-10 224,-10"/>
<text text-anchor="start" x="247.73" y="-15.4" font-family="Times-12" font-size="14.00"> &#160;Module</text>
<polygon fill="#80b1d3" stroke="transparent" points="310,-10 310,-30 330,-30 330,-10 310,-10"/>
<text text-anchor="start" x="333.78" y="-15.4" font-family="Times-12" font-size="14.00"> &#160;Bootstrap</text>
<polygon fill="#fdb462" stroke="transparent" points="407,-10 407,-30 427,-30 427,-10 407,-10"/>
<text text-anchor="start" x="430.67" y="-15.4" font-family="Times-12" font-size="14.00"> &#160;Providers</text>
<polygon fill="#fb8072" stroke="transparent" points="503,-10 503,-30 523,-30 523,-10 503,-10"/>
<text text-anchor="start" x="526.73" y="-15.4" font-family="Times-12" font-size="14.00"> &#160;Exports</text>
<g id="clust1" class="cluster">
<title>cluster_InstitutionsModule</title>
<polygon fill="none" stroke="black" stroke-dasharray="1,5" points="8,-70 8,-195 682,-195 682,-70 8,-70"/>
</g>
<g id="clust4" class="cluster">
<title>cluster_InstitutionsModule_imports</title>
<polygon fill="none" stroke="black" points="374,-78 374,-130 674,-130 674,-78 374,-78"/>
</g>
<g id="clust2" class="cluster">
<title>cluster_InstitutionsModule_declarations</title>
<polygon fill="none" stroke="black" points="206,-78 206,-130 366,-130 366,-78 206,-78"/>
</g>
<g id="clust7" class="cluster">
<title>cluster_InstitutionsModule_providers</title>
<polygon fill="none" stroke="black" points="16,-78 16,-130 198,-130 198,-78 16,-78"/>
</g>
<!-- InstitutionsComponent -->
<g id="node1" class="node">
<title>InstitutionsComponent</title>
<polygon fill="#ffffb3" stroke="black" points="358.34,-122 213.66,-122 213.66,-86 358.34,-86 358.34,-122"/>
<text text-anchor="middle" x="286" y="-99.8" font-family="Times,serif" font-size="14.00">InstitutionsComponent</text>
</g>
<!-- InstitutionsModule -->
<g id="node2" class="node">
<title>InstitutionsModule</title>
<polygon fill="#8dd3c7" stroke="black" points="419.05,-187 416.05,-191 395.05,-191 392.05,-187 296.95,-187 296.95,-151 419.05,-151 419.05,-187"/>
<text text-anchor="middle" x="358" y="-164.8" font-family="Times,serif" font-size="14.00">InstitutionsModule</text>
</g>
<!-- InstitutionsComponent&#45;&gt;InstitutionsModule -->
<g id="edge1" class="edge">
<title>InstitutionsComponent&#45;&gt;InstitutionsModule</title>
<path fill="none" stroke="black" d="M327.45,-122.11C327.45,-122.11 327.45,-140.99 327.45,-140.99"/>
<polygon fill="black" stroke="black" points="323.95,-140.99 327.45,-150.99 330.95,-140.99 323.95,-140.99"/>
</g>
<!-- InstitutionsRoutingModule -->
<g id="node3" class="node">
<title>InstitutionsRoutingModule</title>
<polygon fill="#8dd3c7" stroke="black" points="665.67,-122 662.67,-126 641.67,-126 638.67,-122 498.33,-122 498.33,-86 665.67,-86 665.67,-122"/>
<text text-anchor="middle" x="582" y="-99.8" font-family="Times,serif" font-size="14.00">InstitutionsRoutingModule</text>
</g>
<!-- InstitutionsRoutingModule&#45;&gt;InstitutionsModule -->
<g id="edge2" class="edge">
<title>InstitutionsRoutingModule&#45;&gt;InstitutionsModule</title>
<path fill="none" stroke="black" d="M582,-122.11C582,-141.34 582,-169 582,-169 582,-169 429.21,-169 429.21,-169"/>
<polygon fill="black" stroke="black" points="429.21,-165.5 419.21,-169 429.21,-172.5 429.21,-165.5"/>
</g>
<!-- SharedModule -->
<g id="node4" class="node">
<title>SharedModule</title>
<polygon fill="#8dd3c7" stroke="black" points="480.42,-122 477.42,-126 456.42,-126 453.42,-122 381.58,-122 381.58,-86 480.42,-86 480.42,-122"/>
<text text-anchor="middle" x="431" y="-99.8" font-family="Times,serif" font-size="14.00">SharedModule</text>
</g>
<!-- SharedModule&#45;&gt;InstitutionsModule -->
<g id="edge3" class="edge">
<title>SharedModule&#45;&gt;InstitutionsModule</title>
<path fill="none" stroke="black" d="M400.53,-122.11C400.53,-122.11 400.53,-140.99 400.53,-140.99"/>
<polygon fill="black" stroke="black" points="397.03,-140.99 400.53,-150.99 404.03,-140.99 397.03,-140.99"/>
</g>
<!-- InstitutionsService -->
<g id="node5" class="node">
<title>InstitutionsService</title>
<ellipse fill="#fdb462" stroke="black" cx="107" cy="-104" rx="83.4" ry="18"/>
<text text-anchor="middle" x="107" y="-99.8" font-family="Times,serif" font-size="14.00">InstitutionsService</text>
</g>
<!-- InstitutionsService&#45;&gt;InstitutionsModule -->
<g id="edge4" class="edge">
<title>InstitutionsService&#45;&gt;InstitutionsModule</title>
<path fill="none" stroke="black" d="M107,-122.11C107,-141.34 107,-169 107,-169 107,-169 286.92,-169 286.92,-169"/>
<polygon fill="black" stroke="black" points="286.92,-172.5 296.92,-169 286.92,-165.5 286.92,-172.5"/>
</g>
</g>
</svg>
