<?xml version="1.0" encoding="UTF-8" standalone="no"?>
<!DOCTYPE svg PUBLIC "-//W3C//DTD SVG 1.1//EN"
 "http://www.w3.org/Graphics/SVG/1.1/DTD/svg11.dtd">
<!-- Generated by graphviz version 2.47.0 (20210316.0004)
 -->
<!-- Title: dependencies Pages: 1 -->
<svg width="1218pt" height="211pt"
 viewBox="0.00 0.00 1218.00 211.00" xmlns="http://www.w3.org/2000/svg" xmlns:xlink="http://www.w3.org/1999/xlink">
<g id="graph0" class="graph" transform="scale(1 1) rotate(0) translate(4 207)">
<title>dependencies</title>
<polygon fill="white" stroke="transparent" points="-4,4 -4,-207 1214,-207 1214,4 -4,4"/>
<text text-anchor="start" x="584.01" y="-42.4" font-family="Times-12" font-weight="bold" font-size="14.00">Legend</text>
<polygon fill="#ffffb3" stroke="transparent" points="371,-10 371,-30 391,-30 391,-10 371,-10"/>
<text text-anchor="start" x="394.63" y="-15.4" font-family="Times-12" font-size="14.00"> &#160;Declarations</text>
<polygon fill="#8dd3c7" stroke="transparent" points="484,-10 484,-30 504,-30 504,-10 484,-10"/>
<text text-anchor="start" x="507.73" y="-15.4" font-family="Times-12" font-size="14.00"> &#160;Module</text>
<polygon fill="#80b1d3" stroke="transparent" points="570,-10 570,-30 590,-30 590,-10 570,-10"/>
<text text-anchor="start" x="593.78" y="-15.4" font-family="Times-12" font-size="14.00"> &#160;Bootstrap</text>
<polygon fill="#fdb462" stroke="transparent" points="667,-10 667,-30 687,-30 687,-10 667,-10"/>
<text text-anchor="start" x="690.67" y="-15.4" font-family="Times-12" font-size="14.00"> &#160;Providers</text>
<polygon fill="#fb8072" stroke="transparent" points="763,-10 763,-30 783,-30 783,-10 763,-10"/>
<text text-anchor="start" x="786.73" y="-15.4" font-family="Times-12" font-size="14.00"> &#160;Exports</text>
<g id="clust1" class="cluster">
<title>cluster_CallCenterOperatorModule</title>
<polygon fill="none" stroke="black" stroke-dasharray="1,5" points="8,-70 8,-195 1202,-195 1202,-70 8,-70"/>
</g>
<g id="clust6" class="cluster">
<title>cluster_CallCenterOperatorModule_imports</title>
<polygon fill="none" stroke="black" points="846,-78 846,-130 1194,-130 1194,-78 846,-78"/>
</g>
<g id="clust9" class="cluster">
<title>cluster_CallCenterOperatorModule_providers</title>
<polygon fill="none" stroke="black" points="590,-78 590,-130 838,-130 838,-78 590,-78"/>
</g>
<g id="clust2" class="cluster">
<title>cluster_CallCenterOperatorModule_declarations</title>
<polygon fill="none" stroke="black" points="16,-78 16,-130 582,-130 582,-78 16,-78"/>
</g>
<!-- AssignmentsListComponent -->
<g id="node1" class="node">
<title>AssignmentsListComponent</title>
<polygon fill="#ffffb3" stroke="black" points="573.94,-122 398.06,-122 398.06,-86 573.94,-86 573.94,-122"/>
<text text-anchor="middle" x="486" y="-99.8" font-family="Times,serif" font-size="14.00">AssignmentsListComponent</text>
</g>
<!-- CallCenterOperatorModule -->
<g id="node4" class="node">
<title>CallCenterOperatorModule</title>
<polygon fill="#8dd3c7" stroke="black" points="684.95,-187 681.95,-191 660.95,-191 657.95,-187 515.05,-187 515.05,-151 684.95,-151 684.95,-187"/>
<text text-anchor="middle" x="600" y="-164.8" font-family="Times,serif" font-size="14.00">CallCenterOperatorModule</text>
</g>
<!-- AssignmentsListComponent&#45;&gt;CallCenterOperatorModule -->
<g id="edge1" class="edge">
<title>AssignmentsListComponent&#45;&gt;CallCenterOperatorModule</title>
<path fill="none" stroke="black" d="M544.37,-122.11C544.37,-122.11 544.37,-140.99 544.37,-140.99"/>
<polygon fill="black" stroke="black" points="540.87,-140.99 544.37,-150.99 547.87,-140.99 540.87,-140.99"/>
</g>
<!-- CallCenterOperatorComponent -->
<g id="node2" class="node">
<title>CallCenterOperatorComponent</title>
<polygon fill="#ffffb3" stroke="black" points="379.73,-122 188.27,-122 188.27,-86 379.73,-86 379.73,-122"/>
<text text-anchor="middle" x="284" y="-99.8" font-family="Times,serif" font-size="14.00">CallCenterOperatorComponent</text>
</g>
<!-- CallCenterOperatorComponent&#45;&gt;CallCenterOperatorModule -->
<g id="edge2" class="edge">
<title>CallCenterOperatorComponent&#45;&gt;CallCenterOperatorModule</title>
<path fill="none" stroke="black" d="M284,-122.02C284,-139.37 284,-163 284,-163 284,-163 504.9,-163 504.9,-163"/>
<polygon fill="black" stroke="black" points="504.9,-166.5 514.9,-163 504.9,-159.5 504.9,-166.5"/>
</g>
<!-- TaskDialogComponent -->
<g id="node3" class="node">
<title>TaskDialogComponent</title>
<polygon fill="#ffffb3" stroke="black" points="170.15,-122 23.85,-122 23.85,-86 170.15,-86 170.15,-122"/>
<text text-anchor="middle" x="97" y="-99.8" font-family="Times,serif" font-size="14.00">TaskDialogComponent</text>
</g>
<!-- TaskDialogComponent&#45;&gt;CallCenterOperatorModule -->
<g id="edge3" class="edge">
<title>TaskDialogComponent&#45;&gt;CallCenterOperatorModule</title>
<path fill="none" stroke="black" d="M97,-122.28C97,-143.32 97,-175 97,-175 97,-175 504.96,-175 504.96,-175"/>
<polygon fill="black" stroke="black" points="504.96,-178.5 514.96,-175 504.96,-171.5 504.96,-178.5"/>
</g>
<!-- CallCenterOperatorRoutingModule -->
<g id="node5" class="node">
<title>CallCenterOperatorRoutingModule</title>
<polygon fill="#8dd3c7" stroke="black" points="1185.56,-122 1182.56,-126 1161.56,-126 1158.56,-122 970.44,-122 970.44,-86 1185.56,-86 1185.56,-122"/>
<text text-anchor="middle" x="1078" y="-99.8" font-family="Times,serif" font-size="14.00">CallCenterOperatorRoutingModule</text>
</g>
<!-- CallCenterOperatorRoutingModule&#45;&gt;CallCenterOperatorModule -->
<g id="edge4" class="edge">
<title>CallCenterOperatorRoutingModule&#45;&gt;CallCenterOperatorModule</title>
<path fill="none" stroke="black" d="M1078,-122.28C1078,-143.32 1078,-175 1078,-175 1078,-175 695.18,-175 695.18,-175"/>
<polygon fill="black" stroke="black" points="695.18,-171.5 685.18,-175 695.18,-178.5 695.18,-171.5"/>
</g>
<!-- SharedModule -->
<g id="node6" class="node">
<title>SharedModule</title>
<polygon fill="#8dd3c7" stroke="black" points="952.42,-122 949.42,-126 928.42,-126 925.42,-122 853.58,-122 853.58,-86 952.42,-86 952.42,-122"/>
<text text-anchor="middle" x="903" y="-99.8" font-family="Times,serif" font-size="14.00">SharedModule</text>
</g>
<!-- SharedModule&#45;&gt;CallCenterOperatorModule -->
<g id="edge5" class="edge">
<title>SharedModule&#45;&gt;CallCenterOperatorModule</title>
<path fill="none" stroke="black" d="M903,-122.02C903,-139.37 903,-163 903,-163 903,-163 695.21,-163 695.21,-163"/>
<polygon fill="black" stroke="black" points="695.21,-159.5 685.21,-163 695.21,-166.5 695.21,-159.5"/>
</g>
<!-- CallCenterOperatorService -->
<g id="node7" class="node">
<title>CallCenterOperatorService</title>
<ellipse fill="#fdb462" stroke="black" cx="714" cy="-104" rx="116.28" ry="18"/>
<text text-anchor="middle" x="714" y="-99.8" font-family="Times,serif" font-size="14.00">CallCenterOperatorService</text>
</g>
<!-- CallCenterOperatorService&#45;&gt;CallCenterOperatorModule -->
<g id="edge6" class="edge">
<title>CallCenterOperatorService&#45;&gt;CallCenterOperatorModule</title>
<path fill="none" stroke="black" d="M641.42,-118.1C641.42,-118.1 641.42,-140.72 641.42,-140.72"/>
<polygon fill="black" stroke="black" points="637.92,-140.72 641.42,-150.72 644.92,-140.72 637.92,-140.72"/>
</g>
</g>
</svg>
