<?xml version="1.0" encoding="UTF-8" standalone="no"?>
<!DOCTYPE svg PUBLIC "-//W3C//DTD SVG 1.1//EN"
 "http://www.w3.org/Graphics/SVG/1.1/DTD/svg11.dtd">
<!-- Generated by graphviz version 2.47.0 (20210316.0004)
 -->
<!-- Title: dependencies Pages: 1 -->
<svg width="1531pt" height="211pt"
 viewBox="0.00 0.00 1531.00 211.00" xmlns="http://www.w3.org/2000/svg" xmlns:xlink="http://www.w3.org/1999/xlink">
<g id="graph0" class="graph" transform="scale(1 1) rotate(0) translate(4 207)">
<title>dependencies</title>
<polygon fill="white" stroke="transparent" points="-4,4 -4,-207 1527,-207 1527,4 -4,4"/>
<text text-anchor="start" x="740.51" y="-42.4" font-family="Times-12" font-weight="bold" font-size="14.00">Legend</text>
<polygon fill="#ffffb3" stroke="transparent" points="527.5,-10 527.5,-30 547.5,-30 547.5,-10 527.5,-10"/>
<text text-anchor="start" x="551.13" y="-15.4" font-family="Times-12" font-size="14.00"> &#160;Declarations</text>
<polygon fill="#8dd3c7" stroke="transparent" points="640.5,-10 640.5,-30 660.5,-30 660.5,-10 640.5,-10"/>
<text text-anchor="start" x="664.23" y="-15.4" font-family="Times-12" font-size="14.00"> &#160;Module</text>
<polygon fill="#80b1d3" stroke="transparent" points="726.5,-10 726.5,-30 746.5,-30 746.5,-10 726.5,-10"/>
<text text-anchor="start" x="750.28" y="-15.4" font-family="Times-12" font-size="14.00"> &#160;Bootstrap</text>
<polygon fill="#fdb462" stroke="transparent" points="823.5,-10 823.5,-30 843.5,-30 843.5,-10 823.5,-10"/>
<text text-anchor="start" x="847.17" y="-15.4" font-family="Times-12" font-size="14.00"> &#160;Providers</text>
<polygon fill="#fb8072" stroke="transparent" points="919.5,-10 919.5,-30 939.5,-30 939.5,-10 919.5,-10"/>
<text text-anchor="start" x="943.23" y="-15.4" font-family="Times-12" font-size="14.00"> &#160;Exports</text>
<g id="clust1" class="cluster">
<title>cluster_LandingModule</title>
<polygon fill="none" stroke="black" stroke-dasharray="1,5" points="8,-70 8,-195 1515,-195 1515,-70 8,-70"/>
</g>
<g id="clust8" class="cluster">
<title>cluster_LandingModule_imports</title>
<polygon fill="none" stroke="black" points="1223,-78 1223,-130 1507,-130 1507,-78 1223,-78"/>
</g>
<g id="clust2" class="cluster">
<title>cluster_LandingModule_declarations</title>
<polygon fill="none" stroke="black" points="399,-78 399,-130 1215,-130 1215,-78 399,-78"/>
</g>
<g id="clust11" class="cluster">
<title>cluster_LandingModule_providers</title>
<polygon fill="none" stroke="black" points="16,-78 16,-130 391,-130 391,-78 16,-78"/>
</g>
<!-- ApproveLegalTermsComponent -->
<g id="node1" class="node">
<title>ApproveLegalTermsComponent</title>
<polygon fill="#ffffb3" stroke="black" points="1206.95,-122 1009.05,-122 1009.05,-86 1206.95,-86 1206.95,-122"/>
<text text-anchor="middle" x="1108" y="-99.8" font-family="Times,serif" font-size="14.00">ApproveLegalTermsComponent</text>
</g>
<!-- LandingModule -->
<g id="node6" class="node">
<title>LandingModule</title>
<polygon fill="#8dd3c7" stroke="black" points="841.21,-187 838.21,-191 817.21,-191 814.21,-187 734.79,-187 734.79,-151 841.21,-151 841.21,-187"/>
<text text-anchor="middle" x="788" y="-164.8" font-family="Times,serif" font-size="14.00">LandingModule</text>
</g>
<!-- ApproveLegalTermsComponent&#45;&gt;LandingModule -->
<g id="edge1" class="edge">
<title>ApproveLegalTermsComponent&#45;&gt;LandingModule</title>
<path fill="none" stroke="black" d="M1108,-122.27C1108,-140.56 1108,-166 1108,-166 1108,-166 851.2,-166 851.2,-166"/>
<polygon fill="black" stroke="black" points="851.2,-162.5 841.2,-166 851.2,-169.5 851.2,-162.5"/>
</g>
<!-- LandingComponent -->
<g id="node2" class="node">
<title>LandingComponent</title>
<polygon fill="#ffffb3" stroke="black" points="990.99,-122 863.01,-122 863.01,-86 990.99,-86 990.99,-122"/>
<text text-anchor="middle" x="927" y="-99.8" font-family="Times,serif" font-size="14.00">LandingComponent</text>
</g>
<!-- LandingComponent&#45;&gt;LandingModule -->
<g id="edge2" class="edge">
<title>LandingComponent&#45;&gt;LandingModule</title>
<path fill="none" stroke="black" d="M927,-122.01C927,-138.05 927,-159 927,-159 927,-159 851.34,-159 851.34,-159"/>
<polygon fill="black" stroke="black" points="851.34,-155.5 841.34,-159 851.34,-162.5 851.34,-155.5"/>
</g>
<!-- LoginComponent -->
<g id="node3" class="node">
<title>LoginComponent</title>
<polygon fill="#ffffb3" stroke="black" points="845.28,-122 730.72,-122 730.72,-86 845.28,-86 845.28,-122"/>
<text text-anchor="middle" x="788" y="-99.8" font-family="Times,serif" font-size="14.00">LoginComponent</text>
</g>
<!-- LoginComponent&#45;&gt;LandingModule -->
<g id="edge3" class="edge">
<title>LoginComponent&#45;&gt;LandingModule</title>
<path fill="none" stroke="black" d="M788,-122.11C788,-122.11 788,-140.99 788,-140.99"/>
<polygon fill="black" stroke="black" points="784.5,-140.99 788,-150.99 791.5,-140.99 784.5,-140.99"/>
</g>
<!-- ResetPasswordComponent -->
<g id="node4" class="node">
<title>ResetPasswordComponent</title>
<polygon fill="#ffffb3" stroke="black" points="713.09,-122 546.91,-122 546.91,-86 713.09,-86 713.09,-122"/>
<text text-anchor="middle" x="630" y="-99.8" font-family="Times,serif" font-size="14.00">ResetPasswordComponent</text>
</g>
<!-- ResetPasswordComponent&#45;&gt;LandingModule -->
<g id="edge4" class="edge">
<title>ResetPasswordComponent&#45;&gt;LandingModule</title>
<path fill="none" stroke="black" d="M630,-122.01C630,-138.05 630,-159 630,-159 630,-159 724.51,-159 724.51,-159"/>
<polygon fill="black" stroke="black" points="724.51,-162.5 734.51,-159 724.51,-155.5 724.51,-162.5"/>
</g>
<!-- SignupComponent -->
<g id="node5" class="node">
<title>SignupComponent</title>
<polygon fill="#ffffb3" stroke="black" points="528.51,-122 407.49,-122 407.49,-86 528.51,-86 528.51,-122"/>
<text text-anchor="middle" x="468" y="-99.8" font-family="Times,serif" font-size="14.00">SignupComponent</text>
</g>
<!-- SignupComponent&#45;&gt;LandingModule -->
<g id="edge5" class="edge">
<title>SignupComponent&#45;&gt;LandingModule</title>
<path fill="none" stroke="black" d="M468,-122.27C468,-140.56 468,-166 468,-166 468,-166 724.8,-166 724.8,-166"/>
<polygon fill="black" stroke="black" points="724.8,-169.5 734.8,-166 724.8,-162.5 724.8,-169.5"/>
</g>
<!-- LandingRoutingModule -->
<g id="node7" class="node">
<title>LandingRoutingModule</title>
<polygon fill="#8dd3c7" stroke="black" points="1498.83,-122 1495.83,-126 1474.83,-126 1471.83,-122 1347.17,-122 1347.17,-86 1498.83,-86 1498.83,-122"/>
<text text-anchor="middle" x="1423" y="-99.8" font-family="Times,serif" font-size="14.00">LandingRoutingModule</text>
</g>
<!-- LandingRoutingModule&#45;&gt;LandingModule -->
<g id="edge6" class="edge">
<title>LandingRoutingModule&#45;&gt;LandingModule</title>
<path fill="none" stroke="black" d="M1423,-122.01C1423,-144.49 1423,-180 1423,-180 1423,-180 851.32,-180 851.32,-180"/>
<polygon fill="black" stroke="black" points="851.32,-176.5 841.32,-180 851.32,-183.5 851.32,-176.5"/>
</g>
<!-- SharedModule -->
<g id="node8" class="node">
<title>SharedModule</title>
<polygon fill="#8dd3c7" stroke="black" points="1329.42,-122 1326.42,-126 1305.42,-126 1302.42,-122 1230.58,-122 1230.58,-86 1329.42,-86 1329.42,-122"/>
<text text-anchor="middle" x="1280" y="-99.8" font-family="Times,serif" font-size="14.00">SharedModule</text>
</g>
<!-- SharedModule&#45;&gt;LandingModule -->
<g id="edge7" class="edge">
<title>SharedModule&#45;&gt;LandingModule</title>
<path fill="none" stroke="black" d="M1280,-122.13C1280,-142.57 1280,-173 1280,-173 1280,-173 851.12,-173 851.12,-173"/>
<polygon fill="black" stroke="black" points="851.12,-169.5 841.12,-173 851.12,-176.5 851.12,-169.5"/>
</g>
<!-- LandingService -->
<g id="node9" class="node">
<title>LandingService</title>
<ellipse fill="#fdb462" stroke="black" cx="311" cy="-104" rx="72.35" ry="18"/>
<text text-anchor="middle" x="311" y="-99.8" font-family="Times,serif" font-size="14.00">LandingService</text>
</g>
<!-- LandingService&#45;&gt;LandingModule -->
<g id="edge8" class="edge">
<title>LandingService&#45;&gt;LandingModule</title>
<path fill="none" stroke="black" d="M311,-122.13C311,-142.57 311,-173 311,-173 311,-173 724.67,-173 724.67,-173"/>
<polygon fill="black" stroke="black" points="724.67,-176.5 734.67,-173 724.67,-169.5 724.67,-176.5"/>
</g>
<!-- ResetPasswordService -->
<g id="node10" class="node">
<title>ResetPasswordService</title>
<ellipse fill="#fdb462" stroke="black" cx="122" cy="-104" rx="98.41" ry="18"/>
<text text-anchor="middle" x="122" y="-99.8" font-family="Times,serif" font-size="14.00">ResetPasswordService</text>
</g>
<!-- ResetPasswordService&#45;&gt;LandingModule -->
<g id="edge9" class="edge">
<title>ResetPasswordService&#45;&gt;LandingModule</title>
<path fill="none" stroke="black" d="M122,-122.01C122,-144.49 122,-180 122,-180 122,-180 724.62,-180 724.62,-180"/>
<polygon fill="black" stroke="black" points="724.62,-183.5 734.62,-180 724.62,-176.5 724.62,-183.5"/>
</g>
</g>
</svg>
