<?xml version="1.0" encoding="UTF-8" standalone="no"?>
<!DOCTYPE svg PUBLIC "-//W3C//DTD SVG 1.1//EN"
 "http://www.w3.org/Graphics/SVG/1.1/DTD/svg11.dtd">
<!-- Generated by graphviz version 2.47.0 (20210316.0004)
 -->
<!-- Title: dependencies Pages: 1 -->
<svg width="504pt" height="284pt"
 viewBox="0.00 0.00 504.00 284.00" xmlns="http://www.w3.org/2000/svg" xmlns:xlink="http://www.w3.org/1999/xlink">
<g id="graph0" class="graph" transform="scale(1 1) rotate(0) translate(4 280)">
<title>dependencies</title>
<polygon fill="white" stroke="transparent" points="-4,4 -4,-280 500,-280 500,4 -4,4"/>
<text text-anchor="start" x="227.01" y="-42.4" font-family="Times-12" font-weight="bold" font-size="14.00">Legend</text>
<polygon fill="#ffffb3" stroke="transparent" points="14,-10 14,-30 34,-30 34,-10 14,-10"/>
<text text-anchor="start" x="37.63" y="-15.4" font-family="Times-12" font-size="14.00"> &#160;Declarations</text>
<polygon fill="#8dd3c7" stroke="transparent" points="127,-10 127,-30 147,-30 147,-10 127,-10"/>
<text text-anchor="start" x="150.73" y="-15.4" font-family="Times-12" font-size="14.00"> &#160;Module</text>
<polygon fill="#80b1d3" stroke="transparent" points="213,-10 213,-30 233,-30 233,-10 213,-10"/>
<text text-anchor="start" x="236.78" y="-15.4" font-family="Times-12" font-size="14.00"> &#160;Bootstrap</text>
<polygon fill="#fdb462" stroke="transparent" points="310,-10 310,-30 330,-30 330,-10 310,-10"/>
<text text-anchor="start" x="333.67" y="-15.4" font-family="Times-12" font-size="14.00"> &#160;Providers</text>
<polygon fill="#fb8072" stroke="transparent" points="406,-10 406,-30 426,-30 426,-10 406,-10"/>
<text text-anchor="start" x="429.73" y="-15.4" font-family="Times-12" font-size="14.00"> &#160;Exports</text>
<g id="clust1" class="cluster">
<title>cluster_PipesModule</title>
<polygon fill="none" stroke="black" stroke-dasharray="1,5" points="57,-70 57,-268 439,-268 439,-70 57,-70"/>
</g>
<g id="clust2" class="cluster">
<title>cluster_PipesModule_declarations</title>
<polygon fill="none" stroke="black" points="71,-78 71,-130 426,-130 426,-78 71,-78"/>
</g>
<g id="clust7" class="cluster">
<title>cluster_PipesModule_exports</title>
<polygon fill="none" stroke="black" points="65,-208 65,-260 431,-260 431,-208 65,-208"/>
</g>
<!-- ArabicNumberPipe -->
<g id="node1" class="node">
<title>ArabicNumberPipe</title>
<polygon fill="#ffffb3" stroke="black" points="418.35,-122 293.65,-122 293.65,-86 418.35,-86 418.35,-122"/>
<text text-anchor="middle" x="356" y="-99.8" font-family="Times,serif" font-size="14.00">ArabicNumberPipe</text>
</g>
<!-- PipesModule -->
<g id="node4" class="node">
<title>PipesModule</title>
<polygon fill="#8dd3c7" stroke="black" points="278.88,-187 275.88,-191 254.88,-191 251.88,-187 189.12,-187 189.12,-151 278.88,-151 278.88,-187"/>
<text text-anchor="middle" x="234" y="-164.8" font-family="Times,serif" font-size="14.00">PipesModule</text>
</g>
<!-- ArabicNumberPipe&#45;&gt;PipesModule -->
<g id="edge1" class="edge">
<title>ArabicNumberPipe&#45;&gt;PipesModule</title>
<path fill="none" stroke="black" d="M377.22,-122.02C377.22,-139.37 377.22,-163 377.22,-163 377.22,-163 288.92,-163 288.92,-163"/>
<polygon fill="black" stroke="black" points="288.92,-159.5 278.92,-163 288.92,-166.5 288.92,-159.5"/>
</g>
<!-- EllipsisPipe -->
<g id="node2" class="node">
<title>EllipsisPipe</title>
<polygon fill="#ffffb3" stroke="black" points="275.39,-122 192.61,-122 192.61,-86 275.39,-86 275.39,-122"/>
<text text-anchor="middle" x="234" y="-99.8" font-family="Times,serif" font-size="14.00">EllipsisPipe</text>
</g>
<!-- EllipsisPipe&#45;&gt;PipesModule -->
<g id="edge2" class="edge">
<title>EllipsisPipe&#45;&gt;PipesModule</title>
<path fill="none" stroke="black" d="M234,-122.11C234,-122.11 234,-140.99 234,-140.99"/>
<polygon fill="black" stroke="black" points="230.5,-140.99 234,-150.99 237.5,-140.99 230.5,-140.99"/>
</g>
<!-- FilterPipePipe -->
<g id="node3" class="node">
<title>FilterPipePipe</title>
<polygon fill="#ffffb3" stroke="black" points="175.11,-122 78.89,-122 78.89,-86 175.11,-86 175.11,-122"/>
<text text-anchor="middle" x="127" y="-99.8" font-family="Times,serif" font-size="14.00">FilterPipePipe</text>
</g>
<!-- FilterPipePipe&#45;&gt;PipesModule -->
<g id="edge3" class="edge">
<title>FilterPipePipe&#45;&gt;PipesModule</title>
<path fill="none" stroke="black" d="M141.52,-122.02C141.52,-139.37 141.52,-163 141.52,-163 141.52,-163 179.11,-163 179.11,-163"/>
<polygon fill="black" stroke="black" points="179.11,-166.5 189.11,-163 179.11,-159.5 179.11,-166.5"/>
</g>
<!-- ArabicNumberPipe  -->
<g id="node5" class="node">
<title>ArabicNumberPipe </title>
<polygon fill="#fb8072" stroke="black" points="423.35,-252 294.65,-252 294.65,-216 423.35,-216 423.35,-252"/>
<text text-anchor="middle" x="359" y="-229.8" font-family="Times,serif" font-size="14.00">ArabicNumberPipe </text>
</g>
<!-- PipesModule&#45;&gt;ArabicNumberPipe  -->
<g id="edge4" class="edge">
<title>PipesModule&#45;&gt;ArabicNumberPipe </title>
<path fill="none" stroke="black" stroke-dasharray="5,2" d="M279.05,-175C306.38,-175 336.03,-175 336.03,-175 336.03,-175 336.03,-205.98 336.03,-205.98"/>
<polygon fill="black" stroke="black" points="332.53,-205.98 336.03,-215.98 339.53,-205.98 332.53,-205.98"/>
</g>
<!-- EllipsisPipe  -->
<g id="node6" class="node">
<title>EllipsisPipe </title>
<polygon fill="#fb8072" stroke="black" points="277.39,-252 190.61,-252 190.61,-216 277.39,-216 277.39,-252"/>
<text text-anchor="middle" x="234" y="-229.8" font-family="Times,serif" font-size="14.00">EllipsisPipe </text>
</g>
<!-- PipesModule&#45;&gt;EllipsisPipe  -->
<g id="edge5" class="edge">
<title>PipesModule&#45;&gt;EllipsisPipe </title>
<path fill="none" stroke="black" stroke-dasharray="5,2" d="M234,-187.11C234,-187.11 234,-205.99 234,-205.99"/>
<polygon fill="black" stroke="black" points="230.5,-205.99 234,-215.99 237.5,-205.99 230.5,-205.99"/>
</g>
<!-- FilterPipePipe  -->
<g id="node7" class="node">
<title>FilterPipePipe </title>
<polygon fill="#fb8072" stroke="black" points="172.61,-252 73.39,-252 73.39,-216 172.61,-216 172.61,-252"/>
<text text-anchor="middle" x="123" y="-229.8" font-family="Times,serif" font-size="14.00">FilterPipePipe </text>
</g>
<!-- PipesModule&#45;&gt;FilterPipePipe  -->
<g id="edge6" class="edge">
<title>PipesModule&#45;&gt;FilterPipePipe </title>
<path fill="none" stroke="black" stroke-dasharray="5,2" d="M188.97,-175C153.58,-175 110.23,-175 110.23,-175 110.23,-175 110.23,-205.98 110.23,-205.98"/>
<polygon fill="black" stroke="black" points="106.73,-205.98 110.23,-215.98 113.73,-205.98 106.73,-205.98"/>
</g>
</g>
</svg>
