<?xml version="1.0" encoding="UTF-8" standalone="no"?>
<!DOCTYPE svg PUBLIC "-//W3C//DTD SVG 1.1//EN"
 "http://www.w3.org/Graphics/SVG/1.1/DTD/svg11.dtd">
<!-- Generated by graphviz version 2.47.0 (20210316.0004)
 -->
<!-- Title: dependencies Pages: 1 -->
<svg width="9117pt" height="284pt"
 viewBox="0.00 0.00 9117.00 284.00" xmlns="http://www.w3.org/2000/svg" xmlns:xlink="http://www.w3.org/1999/xlink">
<g id="graph0" class="graph" transform="scale(1 1) rotate(0) translate(4 280)">
<title>dependencies</title>
<polygon fill="white" stroke="transparent" points="-4,4 -4,-280 9113,-280 9113,4 -4,4"/>
<text text-anchor="start" x="4533.51" y="-42.4" font-family="Times-12" font-weight="bold" font-size="14.00">Legend</text>
<polygon fill="#ffffb3" stroke="transparent" points="4320.5,-10 4320.5,-30 4340.5,-30 4340.5,-10 4320.5,-10"/>
<text text-anchor="start" x="4344.13" y="-15.4" font-family="Times-12" font-size="14.00"> &#160;Declarations</text>
<polygon fill="#8dd3c7" stroke="transparent" points="4433.5,-10 4433.5,-30 4453.5,-30 4453.5,-10 4433.5,-10"/>
<text text-anchor="start" x="4457.23" y="-15.4" font-family="Times-12" font-size="14.00"> &#160;Module</text>
<polygon fill="#80b1d3" stroke="transparent" points="4519.5,-10 4519.5,-30 4539.5,-30 4539.5,-10 4519.5,-10"/>
<text text-anchor="start" x="4543.28" y="-15.4" font-family="Times-12" font-size="14.00"> &#160;Bootstrap</text>
<polygon fill="#fdb462" stroke="transparent" points="4616.5,-10 4616.5,-30 4636.5,-30 4636.5,-10 4616.5,-10"/>
<text text-anchor="start" x="4640.17" y="-15.4" font-family="Times-12" font-size="14.00"> &#160;Providers</text>
<polygon fill="#fb8072" stroke="transparent" points="4712.5,-10 4712.5,-30 4732.5,-30 4732.5,-10 4712.5,-10"/>
<text text-anchor="start" x="4736.23" y="-15.4" font-family="Times-12" font-size="14.00"> &#160;Exports</text>
<g id="clust1" class="cluster">
<title>cluster_HouseholdsModule</title>
<polygon fill="none" stroke="black" stroke-dasharray="1,5" points="8,-70 8,-268 9101,-268 9101,-70 8,-70"/>
</g>
<g id="clust2" class="cluster">
<title>cluster_HouseholdsModule_declarations</title>
<polygon fill="none" stroke="black" points="1838,-78 1838,-130 9093,-130 9093,-78 1838,-78"/>
</g>
<g id="clust41" class="cluster">
<title>cluster_HouseholdsModule_exports</title>
<polygon fill="none" stroke="black" points="4562,-208 4562,-260 4726,-260 4726,-208 4562,-208"/>
</g>
<g id="clust40" class="cluster">
<title>cluster_HouseholdsModule_imports</title>
<polygon fill="none" stroke="black" points="1527,-78 1527,-130 1830,-130 1830,-78 1527,-78"/>
</g>
<g id="clust43" class="cluster">
<title>cluster_HouseholdsModule_providers</title>
<polygon fill="none" stroke="black" points="16,-78 16,-130 1519,-130 1519,-78 16,-78"/>
</g>
<!-- ApplicationsListComponent -->
<g id="node1" class="node">
<title>ApplicationsListComponent</title>
<polygon fill="#ffffb3" stroke="black" points="9085.15,-122 8910.85,-122 8910.85,-86 9085.15,-86 9085.15,-122"/>
<text text-anchor="middle" x="8998" y="-99.8" font-family="Times,serif" font-size="14.00">ApplicationsListComponent</text>
</g>
<!-- HouseholdsModule -->
<g id="node38" class="node">
<title>HouseholdsModule</title>
<polygon fill="#8dd3c7" stroke="black" points="4706.65,-187 4703.65,-191 4682.65,-191 4679.65,-187 4581.35,-187 4581.35,-151 4706.65,-151 4706.65,-187"/>
<text text-anchor="middle" x="4644" y="-164.8" font-family="Times,serif" font-size="14.00">HouseholdsModule</text>
</g>
<!-- ApplicationsListComponent&#45;&gt;HouseholdsModule -->
<g id="edge1" class="edge">
<title>ApplicationsListComponent&#45;&gt;HouseholdsModule</title>
<path fill="none" stroke="black" d="M8998,-122.2C8998,-146.36 8998,-186 8998,-186 8998,-186 4716.81,-186 4716.81,-186"/>
<polygon fill="black" stroke="black" points="4716.81,-182.5 4706.81,-186 4716.81,-189.5 4716.81,-182.5"/>
</g>
<!-- AssignedHouseholdsComponent -->
<g id="node2" class="node">
<title>AssignedHouseholdsComponent</title>
<polygon fill="#ffffb3" stroke="black" points="8892.53,-122 8693.47,-122 8693.47,-86 8892.53,-86 8892.53,-122"/>
<text text-anchor="middle" x="8793" y="-99.8" font-family="Times,serif" font-size="14.00">AssignedHouseholdsComponent</text>
</g>
<!-- AssignedHouseholdsComponent&#45;&gt;HouseholdsModule -->
<g id="edge2" class="edge">
<title>AssignedHouseholdsComponent&#45;&gt;HouseholdsModule</title>
<path fill="none" stroke="black" d="M8793,-122.15C8793,-145.76 8793,-184 8793,-184 8793,-184 4716.69,-184 4716.69,-184"/>
<polygon fill="black" stroke="black" points="4716.69,-180.5 4706.69,-184 4716.69,-187.5 4716.69,-180.5"/>
</g>
<!-- AuditComponent -->
<g id="node3" class="node">
<title>AuditComponent</title>
<polygon fill="#ffffb3" stroke="black" points="8675.72,-122 8562.28,-122 8562.28,-86 8675.72,-86 8675.72,-122"/>
<text text-anchor="middle" x="8619" y="-99.8" font-family="Times,serif" font-size="14.00">AuditComponent</text>
</g>
<!-- AuditComponent&#45;&gt;HouseholdsModule -->
<g id="edge3" class="edge">
<title>AuditComponent&#45;&gt;HouseholdsModule</title>
<path fill="none" stroke="black" d="M8619,-122.32C8619,-145.66 8619,-183 8619,-183 8619,-183 4716.84,-183 4716.84,-183"/>
<polygon fill="black" stroke="black" points="4716.84,-179.5 4706.84,-183 4716.84,-186.5 4716.84,-179.5"/>
</g>
<!-- CampaignsDetailsComponent -->
<g id="node4" class="node">
<title>CampaignsDetailsComponent</title>
<polygon fill="#ffffb3" stroke="black" points="8543.98,-122 8360.02,-122 8360.02,-86 8543.98,-86 8543.98,-122"/>
<text text-anchor="middle" x="8452" y="-99.8" font-family="Times,serif" font-size="14.00">CampaignsDetailsComponent</text>
</g>
<!-- CampaignsDetailsComponent&#45;&gt;HouseholdsModule -->
<g id="edge4" class="edge">
<title>CampaignsDetailsComponent&#45;&gt;HouseholdsModule</title>
<path fill="none" stroke="black" d="M8452,-122.25C8452,-145.02 8452,-181 8452,-181 8452,-181 4716.92,-181 4716.92,-181"/>
<polygon fill="black" stroke="black" points="4716.92,-177.5 4706.92,-181 4716.92,-184.5 4716.92,-177.5"/>
</g>
<!-- CampaignsListComponent -->
<g id="node5" class="node">
<title>CampaignsListComponent</title>
<polygon fill="#ffffb3" stroke="black" points="8342.1,-122 8175.9,-122 8175.9,-86 8342.1,-86 8342.1,-122"/>
<text text-anchor="middle" x="8259" y="-99.8" font-family="Times,serif" font-size="14.00">CampaignsListComponent</text>
</g>
<!-- CampaignsListComponent&#45;&gt;HouseholdsModule -->
<g id="edge5" class="edge">
<title>CampaignsListComponent&#45;&gt;HouseholdsModule</title>
<path fill="none" stroke="black" d="M8259,-122.01C8259,-144.49 8259,-180 8259,-180 8259,-180 4716.75,-180 4716.75,-180"/>
<polygon fill="black" stroke="black" points="4716.75,-176.5 4706.75,-180 4716.75,-183.5 4716.75,-176.5"/>
</g>
<!-- CampaignsTemplatesListComponent -->
<g id="node6" class="node">
<title>CampaignsTemplatesListComponent</title>
<polygon fill="#ffffb3" stroke="black" points="8158.42,-122 7933.58,-122 7933.58,-86 8158.42,-86 8158.42,-122"/>
<text text-anchor="middle" x="8046" y="-99.8" font-family="Times,serif" font-size="14.00">CampaignsTemplatesListComponent</text>
</g>
<!-- CampaignsTemplatesListComponent&#45;&gt;HouseholdsModule -->
<g id="edge6" class="edge">
<title>CampaignsTemplatesListComponent&#45;&gt;HouseholdsModule</title>
<path fill="none" stroke="black" d="M8046,-122.29C8046,-144.21 8046,-178 8046,-178 8046,-178 4716.69,-178 4716.69,-178"/>
<polygon fill="black" stroke="black" points="4716.69,-174.5 4706.69,-178 4716.69,-181.5 4716.69,-174.5"/>
</g>
<!-- CampaignsWarningDialogComponent -->
<g id="node7" class="node">
<title>CampaignsWarningDialogComponent</title>
<polygon fill="#ffffb3" stroke="black" points="7915.91,-122 7684.09,-122 7684.09,-86 7915.91,-86 7915.91,-122"/>
<text text-anchor="middle" x="7800" y="-99.8" font-family="Times,serif" font-size="14.00">CampaignsWarningDialogComponent</text>
</g>
<!-- CampaignsWarningDialogComponent&#45;&gt;HouseholdsModule -->
<g id="edge7" class="edge">
<title>CampaignsWarningDialogComponent&#45;&gt;HouseholdsModule</title>
<path fill="none" stroke="black" d="M7800,-122.04C7800,-143.66 7800,-177 7800,-177 7800,-177 4716.69,-177 4716.69,-177"/>
<polygon fill="black" stroke="black" points="4716.69,-173.5 4706.69,-177 4716.69,-180.5 4716.69,-173.5"/>
</g>
<!-- CasesInspectionComponent -->
<g id="node8" class="node">
<title>CasesInspectionComponent</title>
<polygon fill="#ffffb3" stroke="black" points="7666.3,-122 7493.7,-122 7493.7,-86 7666.3,-86 7666.3,-122"/>
<text text-anchor="middle" x="7580" y="-99.8" font-family="Times,serif" font-size="14.00">CasesInspectionComponent</text>
</g>
<!-- CasesInspectionComponent&#45;&gt;HouseholdsModule -->
<g id="edge8" class="edge">
<title>CasesInspectionComponent&#45;&gt;HouseholdsModule</title>
<path fill="none" stroke="black" d="M7580,-122.28C7580,-143.32 7580,-175 7580,-175 7580,-175 4716.68,-175 4716.68,-175"/>
<polygon fill="black" stroke="black" points="4716.68,-171.5 4706.68,-175 4716.68,-178.5 4716.68,-171.5"/>
</g>
<!-- CasesInspectionListComponent -->
<g id="node9" class="node">
<title>CasesInspectionListComponent</title>
<polygon fill="#ffffb3" stroke="black" points="7476.08,-122 7281.92,-122 7281.92,-86 7476.08,-86 7476.08,-122"/>
<text text-anchor="middle" x="7379" y="-99.8" font-family="Times,serif" font-size="14.00">CasesInspectionListComponent</text>
</g>
<!-- CasesInspectionListComponent&#45;&gt;HouseholdsModule -->
<g id="edge9" class="edge">
<title>CasesInspectionListComponent&#45;&gt;HouseholdsModule</title>
<path fill="none" stroke="black" d="M7379,-122.13C7379,-142.57 7379,-173 7379,-173 7379,-173 4716.92,-173 4716.92,-173"/>
<polygon fill="black" stroke="black" points="4716.92,-169.5 4706.92,-173 4716.92,-176.5 4716.92,-169.5"/>
</g>
<!-- ChangeLogsComponent -->
<g id="node10" class="node">
<title>ChangeLogsComponent</title>
<polygon fill="#ffffb3" stroke="black" points="7264.1,-122 7111.9,-122 7111.9,-86 7264.1,-86 7264.1,-122"/>
<text text-anchor="middle" x="7188" y="-99.8" font-family="Times,serif" font-size="14.00">ChangeLogsComponent</text>
</g>
<!-- ChangeLogsComponent&#45;&gt;HouseholdsModule -->
<g id="edge10" class="edge">
<title>ChangeLogsComponent&#45;&gt;HouseholdsModule</title>
<path fill="none" stroke="black" d="M7188,-122.22C7188,-142.37 7188,-172 7188,-172 7188,-172 4716.89,-172 4716.89,-172"/>
<polygon fill="black" stroke="black" points="4716.89,-168.5 4706.89,-172 4716.89,-175.5 4716.89,-168.5"/>
</g>
<!-- ChangeLogsListingComponent -->
<g id="node11" class="node">
<title>ChangeLogsListingComponent</title>
<polygon fill="#ffffb3" stroke="black" points="7093.76,-122 6902.24,-122 6902.24,-86 7093.76,-86 7093.76,-122"/>
<text text-anchor="middle" x="6998" y="-99.8" font-family="Times,serif" font-size="14.00">ChangeLogsListingComponent</text>
</g>
<!-- ChangeLogsListingComponent&#45;&gt;HouseholdsModule -->
<g id="edge11" class="edge">
<title>ChangeLogsListingComponent&#45;&gt;HouseholdsModule</title>
<path fill="none" stroke="black" d="M6998,-122.03C6998,-141.58 6998,-170 6998,-170 6998,-170 4716.66,-170 4716.66,-170"/>
<polygon fill="black" stroke="black" points="4716.66,-166.5 4706.66,-170 4716.66,-173.5 4716.66,-166.5"/>
</g>
<!-- ChangesDetailsComponent -->
<g id="node12" class="node">
<title>ChangesDetailsComponent</title>
<polygon fill="#ffffb3" stroke="black" points="6884.7,-122 6715.3,-122 6715.3,-86 6884.7,-86 6884.7,-122"/>
<text text-anchor="middle" x="6800" y="-99.8" font-family="Times,serif" font-size="14.00">ChangesDetailsComponent</text>
</g>
<!-- ChangesDetailsComponent&#45;&gt;HouseholdsModule -->
<g id="edge12" class="edge">
<title>ChangesDetailsComponent&#45;&gt;HouseholdsModule</title>
<path fill="none" stroke="black" d="M6800,-122.11C6800,-141.34 6800,-169 6800,-169 6800,-169 4716.78,-169 4716.78,-169"/>
<polygon fill="black" stroke="black" points="4716.78,-165.5 4706.78,-169 4716.78,-172.5 4716.78,-165.5"/>
</g>
<!-- CorrectionsComponent -->
<g id="node13" class="node">
<title>CorrectionsComponent</title>
<polygon fill="#ffffb3" stroke="black" points="6697.15,-122 6550.85,-122 6550.85,-86 6697.15,-86 6697.15,-122"/>
<text text-anchor="middle" x="6624" y="-99.8" font-family="Times,serif" font-size="14.00">CorrectionsComponent</text>
</g>
<!-- CorrectionsComponent&#45;&gt;HouseholdsModule -->
<g id="edge13" class="edge">
<title>CorrectionsComponent&#45;&gt;HouseholdsModule</title>
<path fill="none" stroke="black" d="M6624,-122.22C6624,-140.83 6624,-167 6624,-167 6624,-167 4716.8,-167 4716.8,-167"/>
<polygon fill="black" stroke="black" points="4716.8,-163.5 4706.8,-167 4716.8,-170.5 4716.8,-163.5"/>
</g>
<!-- DataTablesComponent -->
<g id="node14" class="node">
<title>DataTablesComponent</title>
<polygon fill="#ffffb3" stroke="black" points="6532.58,-122 6387.42,-122 6387.42,-86 6532.58,-86 6532.58,-122"/>
<text text-anchor="middle" x="6460" y="-99.8" font-family="Times,serif" font-size="14.00">DataTablesComponent</text>
</g>
<!-- DataTablesComponent&#45;&gt;HouseholdsModule -->
<g id="edge14" class="edge">
<title>DataTablesComponent&#45;&gt;HouseholdsModule</title>
<path fill="none" stroke="black" d="M6460,-122.27C6460,-140.56 6460,-166 6460,-166 6460,-166 4716.77,-166 4716.77,-166"/>
<polygon fill="black" stroke="black" points="4716.77,-162.5 4706.77,-166 4716.77,-169.5 4716.77,-162.5"/>
</g>
<!-- EssnComponent -->
<g id="node15" class="node">
<title>EssnComponent</title>
<polygon fill="#ffffb3" stroke="black" points="6369.77,-122 6262.23,-122 6262.23,-86 6369.77,-86 6369.77,-122"/>
<text text-anchor="middle" x="6316" y="-99.8" font-family="Times,serif" font-size="14.00">EssnComponent</text>
</g>
<!-- EssnComponent&#45;&gt;HouseholdsModule -->
<g id="edge15" class="edge">
<title>EssnComponent&#45;&gt;HouseholdsModule</title>
<path fill="none" stroke="black" d="M6316,-122C6316,-139.68 6316,-164 6316,-164 6316,-164 4716.74,-164 4716.74,-164"/>
<polygon fill="black" stroke="black" points="4716.74,-160.5 4706.74,-164 4716.74,-167.5 4716.74,-160.5"/>
</g>
<!-- FuzzyMatchingComponent -->
<g id="node16" class="node">
<title>FuzzyMatchingComponent</title>
<polygon fill="#ffffb3" stroke="black" points="6244.7,-122 6075.3,-122 6075.3,-86 6244.7,-86 6244.7,-122"/>
<text text-anchor="middle" x="6160" y="-99.8" font-family="Times,serif" font-size="14.00">FuzzyMatchingComponent</text>
</g>
<!-- FuzzyMatchingComponent&#45;&gt;HouseholdsModule -->
<g id="edge16" class="edge">
<title>FuzzyMatchingComponent&#45;&gt;HouseholdsModule</title>
<path fill="none" stroke="black" d="M6160,-122.03C6160,-139.06 6160,-162 6160,-162 6160,-162 4716.73,-162 4716.73,-162"/>
<polygon fill="black" stroke="black" points="4716.73,-158.5 4706.73,-162 4716.73,-165.5 4716.73,-158.5"/>
</g>
<!-- FuzzyMatchingDetailsComponent -->
<g id="node17" class="node">
<title>FuzzyMatchingDetailsComponent</title>
<polygon fill="#ffffb3" stroke="black" points="6057.35,-122 5848.65,-122 5848.65,-86 6057.35,-86 6057.35,-122"/>
<text text-anchor="middle" x="5953" y="-99.8" font-family="Times,serif" font-size="14.00">FuzzyMatchingDetailsComponent</text>
</g>
<!-- FuzzyMatchingDetailsComponent&#45;&gt;HouseholdsModule -->
<g id="edge17" class="edge">
<title>FuzzyMatchingDetailsComponent&#45;&gt;HouseholdsModule</title>
<path fill="none" stroke="black" d="M5953,-122.04C5953,-138.73 5953,-161 5953,-161 5953,-161 4716.69,-161 4716.69,-161"/>
<polygon fill="black" stroke="black" points="4716.69,-157.5 4706.69,-161 4716.69,-164.5 4716.69,-157.5"/>
</g>
<!-- FuzzyMatchingListComponent -->
<g id="node18" class="node">
<title>FuzzyMatchingListComponent</title>
<polygon fill="#ffffb3" stroke="black" points="5830.48,-122 5639.52,-122 5639.52,-86 5830.48,-86 5830.48,-122"/>
<text text-anchor="middle" x="5735" y="-99.8" font-family="Times,serif" font-size="14.00">FuzzyMatchingListComponent</text>
</g>
<!-- FuzzyMatchingListComponent&#45;&gt;HouseholdsModule -->
<g id="edge18" class="edge">
<title>FuzzyMatchingListComponent&#45;&gt;HouseholdsModule</title>
<path fill="none" stroke="black" d="M5735,-122.01C5735,-138.05 5735,-159 5735,-159 5735,-159 4716.97,-159 4716.97,-159"/>
<polygon fill="black" stroke="black" points="4716.97,-155.5 4706.97,-159 4716.97,-162.5 4716.97,-155.5"/>
</g>
<!-- GeneratedReportComponent -->
<g id="node19" class="node">
<title>GeneratedReportComponent</title>
<polygon fill="#ffffb3" stroke="black" points="5621.45,-122 5444.55,-122 5444.55,-86 5621.45,-86 5621.45,-122"/>
<text text-anchor="middle" x="5533" y="-99.8" font-family="Times,serif" font-size="14.00">GeneratedReportComponent</text>
</g>
<!-- GeneratedReportComponent&#45;&gt;HouseholdsModule -->
<g id="edge19" class="edge">
<title>GeneratedReportComponent&#45;&gt;HouseholdsModule</title>
<path fill="none" stroke="black" d="M5533,-122.28C5533,-137.95 5533,-158 5533,-158 5533,-158 4716.87,-158 4716.87,-158"/>
<polygon fill="black" stroke="black" points="4716.87,-154.5 4706.87,-158 4716.87,-161.5 4716.87,-154.5"/>
</g>
<!-- HistoryPaymentDialogComponent -->
<g id="node20" class="node">
<title>HistoryPaymentDialogComponent</title>
<polygon fill="#ffffb3" stroke="black" points="5426.42,-122 5215.58,-122 5215.58,-86 5426.42,-86 5426.42,-122"/>
<text text-anchor="middle" x="5321" y="-99.8" font-family="Times,serif" font-size="14.00">HistoryPaymentDialogComponent</text>
</g>
<!-- HistoryPaymentDialogComponent&#45;&gt;HouseholdsModule -->
<g id="edge20" class="edge">
<title>HistoryPaymentDialogComponent&#45;&gt;HouseholdsModule</title>
<path fill="none" stroke="black" d="M5321,-122.19C5321,-137.18 5321,-156 5321,-156 5321,-156 4716.78,-156 4716.78,-156"/>
<polygon fill="black" stroke="black" points="4716.78,-152.5 4706.78,-156 4716.78,-159.5 4716.78,-152.5"/>
</g>
<!-- HistoryProcessComponent -->
<g id="node21" class="node">
<title>HistoryProcessComponent</title>
<polygon fill="#ffffb3" stroke="black" points="5198.09,-122 5031.91,-122 5031.91,-86 5198.09,-86 5198.09,-122"/>
<text text-anchor="middle" x="5115" y="-99.8" font-family="Times,serif" font-size="14.00">HistoryProcessComponent</text>
</g>
<!-- HistoryProcessComponent&#45;&gt;HouseholdsModule -->
<g id="edge21" class="edge">
<title>HistoryProcessComponent&#45;&gt;HouseholdsModule</title>
<path fill="none" stroke="black" d="M5115,-122.12C5115,-136.78 5115,-155 5115,-155 5115,-155 4717.03,-155 4717.03,-155"/>
<polygon fill="black" stroke="black" points="4717.03,-151.5 4707.03,-155 4717.03,-158.5 4717.03,-151.5"/>
</g>
<!-- HouseholdReportsComponent -->
<g id="node22" class="node">
<title>HouseholdReportsComponent</title>
<polygon fill="#ffffb3" stroke="black" points="5013.54,-122 4828.46,-122 4828.46,-86 5013.54,-86 5013.54,-122"/>
<text text-anchor="middle" x="4921" y="-99.8" font-family="Times,serif" font-size="14.00">HouseholdReportsComponent</text>
</g>
<!-- HouseholdReportsComponent&#45;&gt;HouseholdsModule -->
<g id="edge22" class="edge">
<title>HouseholdReportsComponent&#45;&gt;HouseholdsModule</title>
<path fill="none" stroke="black" d="M4921,-122.25C4921,-136.18 4921,-153 4921,-153 4921,-153 4716.86,-153 4716.86,-153"/>
<polygon fill="black" stroke="black" points="4716.86,-149.5 4706.86,-153 4716.86,-156.5 4716.86,-149.5"/>
</g>
<!-- HouseholdsComponent -->
<g id="node23" class="node">
<title>HouseholdsComponent</title>
<polygon fill="#ffffb3" stroke="black" points="4810.93,-122 4663.07,-122 4663.07,-86 4810.93,-86 4810.93,-122"/>
<text text-anchor="middle" x="4737" y="-99.8" font-family="Times,serif" font-size="14.00">HouseholdsComponent</text>
</g>
<!-- HouseholdsComponent&#45;&gt;HouseholdsModule -->
<g id="edge23" class="edge">
<title>HouseholdsComponent&#45;&gt;HouseholdsModule</title>
<path fill="none" stroke="black" d="M4685.05,-122.11C4685.05,-122.11 4685.05,-140.99 4685.05,-140.99"/>
<polygon fill="black" stroke="black" points="4681.55,-140.99 4685.05,-150.99 4688.55,-140.99 4681.55,-140.99"/>
</g>
<!-- InclusionExclusionComponent -->
<g id="node24" class="node">
<title>InclusionExclusionComponent</title>
<polygon fill="#ffffb3" stroke="black" points="4645.93,-122 4456.07,-122 4456.07,-86 4645.93,-86 4645.93,-122"/>
<text text-anchor="middle" x="4551" y="-99.8" font-family="Times,serif" font-size="14.00">InclusionExclusionComponent</text>
</g>
<!-- InclusionExclusionComponent&#45;&gt;HouseholdsModule -->
<g id="edge24" class="edge">
<title>InclusionExclusionComponent&#45;&gt;HouseholdsModule</title>
<path fill="none" stroke="black" d="M4613.44,-122.11C4613.44,-122.11 4613.44,-140.99 4613.44,-140.99"/>
<polygon fill="black" stroke="black" points="4609.94,-140.99 4613.44,-150.99 4616.94,-140.99 4609.94,-140.99"/>
</g>
<!-- LandingHouseholdsComponent -->
<g id="node25" class="node">
<title>LandingHouseholdsComponent</title>
<polygon fill="#ffffb3" stroke="black" points="4438.09,-122 4243.91,-122 4243.91,-86 4438.09,-86 4438.09,-122"/>
<text text-anchor="middle" x="4341" y="-99.8" font-family="Times,serif" font-size="14.00">LandingHouseholdsComponent</text>
</g>
<!-- LandingHouseholdsComponent&#45;&gt;HouseholdsModule -->
<g id="edge25" class="edge">
<title>LandingHouseholdsComponent&#45;&gt;HouseholdsModule</title>
<path fill="none" stroke="black" d="M4341,-122.25C4341,-136.18 4341,-153 4341,-153 4341,-153 4571.22,-153 4571.22,-153"/>
<polygon fill="black" stroke="black" points="4571.22,-156.5 4581.22,-153 4571.22,-149.5 4571.22,-156.5"/>
</g>
<!-- MigrationComponent -->
<g id="node26" class="node">
<title>MigrationComponent</title>
<polygon fill="#ffffb3" stroke="black" points="4225.82,-122 4088.18,-122 4088.18,-86 4225.82,-86 4225.82,-122"/>
<text text-anchor="middle" x="4157" y="-99.8" font-family="Times,serif" font-size="14.00">MigrationComponent</text>
</g>
<!-- MigrationComponent&#45;&gt;HouseholdsModule -->
<g id="edge26" class="edge">
<title>MigrationComponent&#45;&gt;HouseholdsModule</title>
<path fill="none" stroke="black" d="M4157,-122.12C4157,-136.78 4157,-155 4157,-155 4157,-155 4571.33,-155 4571.33,-155"/>
<polygon fill="black" stroke="black" points="4571.33,-158.5 4581.33,-155 4571.33,-151.5 4571.33,-158.5"/>
</g>
<!-- PaymentDetailsDialogComponent -->
<g id="node27" class="node">
<title>PaymentDetailsDialogComponent</title>
<polygon fill="#ffffb3" stroke="black" points="4070.08,-122 3861.92,-122 3861.92,-86 4070.08,-86 4070.08,-122"/>
<text text-anchor="middle" x="3966" y="-99.8" font-family="Times,serif" font-size="14.00">PaymentDetailsDialogComponent</text>
</g>
<!-- PaymentDetailsDialogComponent&#45;&gt;HouseholdsModule -->
<g id="edge27" class="edge">
<title>PaymentDetailsDialogComponent&#45;&gt;HouseholdsModule</title>
<path fill="none" stroke="black" d="M3966,-122.19C3966,-137.18 3966,-156 3966,-156 3966,-156 4571.13,-156 4571.13,-156"/>
<polygon fill="black" stroke="black" points="4571.13,-159.5 4581.13,-156 4571.13,-152.5 4571.13,-159.5"/>
</g>
<!-- PaymentGenerationComponent -->
<g id="node28" class="node">
<title>PaymentGenerationComponent</title>
<polygon fill="#ffffb3" stroke="black" points="3844.02,-122 3651.98,-122 3651.98,-86 3844.02,-86 3844.02,-122"/>
<text text-anchor="middle" x="3748" y="-99.8" font-family="Times,serif" font-size="14.00">PaymentGenerationComponent</text>
</g>
<!-- PaymentGenerationComponent&#45;&gt;HouseholdsModule -->
<g id="edge28" class="edge">
<title>PaymentGenerationComponent&#45;&gt;HouseholdsModule</title>
<path fill="none" stroke="black" d="M3748,-122.28C3748,-137.95 3748,-158 3748,-158 3748,-158 4571,-158 4571,-158"/>
<polygon fill="black" stroke="black" points="4571,-161.5 4581,-158 4570.99,-154.5 4571,-161.5"/>
</g>
<!-- PaymentPlansComponent -->
<g id="node29" class="node">
<title>PaymentPlansComponent</title>
<polygon fill="#ffffb3" stroke="black" points="3633.16,-122 3472.84,-122 3472.84,-86 3633.16,-86 3633.16,-122"/>
<text text-anchor="middle" x="3553" y="-99.8" font-family="Times,serif" font-size="14.00">PaymentPlansComponent</text>
</g>
<!-- PaymentPlansComponent&#45;&gt;HouseholdsModule -->
<g id="edge29" class="edge">
<title>PaymentPlansComponent&#45;&gt;HouseholdsModule</title>
<path fill="none" stroke="black" d="M3553,-122.01C3553,-138.05 3553,-159 3553,-159 3553,-159 4571.03,-159 4571.03,-159"/>
<polygon fill="black" stroke="black" points="4571.03,-162.5 4581.03,-159 4571.03,-155.5 4571.03,-162.5"/>
</g>
<!-- PreviousChangesComponent -->
<g id="node30" class="node">
<title>PreviousChangesComponent</title>
<polygon fill="#ffffb3" stroke="black" points="3454.04,-122 3275.96,-122 3275.96,-86 3454.04,-86 3454.04,-122"/>
<text text-anchor="middle" x="3365" y="-99.8" font-family="Times,serif" font-size="14.00">PreviousChangesComponent</text>
</g>
<!-- PreviousChangesComponent&#45;&gt;HouseholdsModule -->
<g id="edge30" class="edge">
<title>PreviousChangesComponent&#45;&gt;HouseholdsModule</title>
<path fill="none" stroke="black" d="M3365,-122.04C3365,-138.73 3365,-161 3365,-161 3365,-161 4571.01,-161 4571.01,-161"/>
<polygon fill="black" stroke="black" points="4571.01,-164.5 4581.01,-161 4571.01,-157.5 4571.01,-164.5"/>
</g>
<!-- ReinitializeApplicationsComponent -->
<g id="node31" class="node">
<title>ReinitializeApplicationsComponent</title>
<polygon fill="#ffffb3" stroke="black" points="3257.91,-122 3040.09,-122 3040.09,-86 3257.91,-86 3257.91,-122"/>
<text text-anchor="middle" x="3149" y="-99.8" font-family="Times,serif" font-size="14.00">ReinitializeApplicationsComponent</text>
</g>
<!-- ReinitializeApplicationsComponent&#45;&gt;HouseholdsModule -->
<g id="edge31" class="edge">
<title>ReinitializeApplicationsComponent&#45;&gt;HouseholdsModule</title>
<path fill="none" stroke="black" d="M3149,-122.03C3149,-139.06 3149,-162 3149,-162 3149,-162 4571.19,-162 4571.19,-162"/>
<polygon fill="black" stroke="black" points="4571.19,-165.5 4581.19,-162 4571.19,-158.5 4571.19,-165.5"/>
</g>
<!-- SmsGenerationComponent -->
<g id="node32" class="node">
<title>SmsGenerationComponent</title>
<polygon fill="#ffffb3" stroke="black" points="3021.64,-122 2854.36,-122 2854.36,-86 3021.64,-86 3021.64,-122"/>
<text text-anchor="middle" x="2938" y="-99.8" font-family="Times,serif" font-size="14.00">SmsGenerationComponent</text>
</g>
<!-- SmsGenerationComponent&#45;&gt;HouseholdsModule -->
<g id="edge32" class="edge">
<title>SmsGenerationComponent&#45;&gt;HouseholdsModule</title>
<path fill="none" stroke="black" d="M2938,-122C2938,-139.68 2938,-164 2938,-164 2938,-164 4571.26,-164 4571.26,-164"/>
<polygon fill="black" stroke="black" points="4571.26,-167.5 4581.26,-164 4571.26,-160.5 4571.26,-167.5"/>
</g>
<!-- SmsGenerationListComponent -->
<g id="node33" class="node">
<title>SmsGenerationListComponent</title>
<polygon fill="#ffffb3" stroke="black" points="2835.92,-122 2646.08,-122 2646.08,-86 2835.92,-86 2835.92,-122"/>
<text text-anchor="middle" x="2741" y="-99.8" font-family="Times,serif" font-size="14.00">SmsGenerationListComponent</text>
</g>
<!-- SmsGenerationListComponent&#45;&gt;HouseholdsModule -->
<g id="edge33" class="edge">
<title>SmsGenerationListComponent&#45;&gt;HouseholdsModule</title>
<path fill="none" stroke="black" d="M2741,-122.27C2741,-140.56 2741,-166 2741,-166 2741,-166 4571.23,-166 4571.23,-166"/>
<polygon fill="black" stroke="black" points="4571.23,-169.5 4581.23,-166 4571.23,-162.5 4571.23,-169.5"/>
</g>
<!-- StudentDataComponent -->
<g id="node34" class="node">
<title>StudentDataComponent</title>
<polygon fill="#ffffb3" stroke="black" points="2628.04,-122 2477.96,-122 2477.96,-86 2628.04,-86 2628.04,-122"/>
<text text-anchor="middle" x="2553" y="-99.8" font-family="Times,serif" font-size="14.00">StudentDataComponent</text>
</g>
<!-- StudentDataComponent&#45;&gt;HouseholdsModule -->
<g id="edge34" class="edge">
<title>StudentDataComponent&#45;&gt;HouseholdsModule</title>
<path fill="none" stroke="black" d="M2553,-122.22C2553,-140.83 2553,-167 2553,-167 2553,-167 4571.14,-167 4571.14,-167"/>
<polygon fill="black" stroke="black" points="4571.14,-170.5 4581.14,-167 4571.14,-163.5 4571.14,-170.5"/>
</g>
<!-- SurveysListComponent -->
<g id="node35" class="node">
<title>SurveysListComponent</title>
<polygon fill="#ffffb3" stroke="black" points="2460.21,-122 2311.79,-122 2311.79,-86 2460.21,-86 2460.21,-122"/>
<text text-anchor="middle" x="2386" y="-99.8" font-family="Times,serif" font-size="14.00">SurveysListComponent</text>
</g>
<!-- SurveysListComponent&#45;&gt;HouseholdsModule -->
<g id="edge35" class="edge">
<title>SurveysListComponent&#45;&gt;HouseholdsModule</title>
<path fill="none" stroke="black" d="M2386,-122.11C2386,-141.34 2386,-169 2386,-169 2386,-169 4571.25,-169 4571.25,-169"/>
<polygon fill="black" stroke="black" points="4571.25,-172.5 4581.25,-169 4571.25,-165.5 4571.25,-172.5"/>
</g>
<!-- UnassignedHouseholdsComponent -->
<g id="node36" class="node">
<title>UnassignedHouseholdsComponent</title>
<polygon fill="#ffffb3" stroke="black" points="2294.25,-122 2081.75,-122 2081.75,-86 2294.25,-86 2294.25,-122"/>
<text text-anchor="middle" x="2188" y="-99.8" font-family="Times,serif" font-size="14.00">UnassignedHouseholdsComponent</text>
</g>
<!-- UnassignedHouseholdsComponent&#45;&gt;HouseholdsModule -->
<g id="edge36" class="edge">
<title>UnassignedHouseholdsComponent&#45;&gt;HouseholdsModule</title>
<path fill="none" stroke="black" d="M2188,-122.03C2188,-141.58 2188,-170 2188,-170 2188,-170 4571.13,-170 4571.13,-170"/>
<polygon fill="black" stroke="black" points="4571.13,-173.5 4581.13,-170 4571.13,-166.5 4571.13,-173.5"/>
</g>
<!-- UnscheduledSpotchecksComponent -->
<g id="node37" class="node">
<title>UnscheduledSpotchecksComponent</title>
<polygon fill="#ffffb3" stroke="black" points="2064.18,-122 1845.82,-122 1845.82,-86 2064.18,-86 2064.18,-122"/>
<text text-anchor="middle" x="1955" y="-99.8" font-family="Times,serif" font-size="14.00">UnscheduledSpotchecksComponent</text>
</g>
<!-- UnscheduledSpotchecksComponent&#45;&gt;HouseholdsModule -->
<g id="edge37" class="edge">
<title>UnscheduledSpotchecksComponent&#45;&gt;HouseholdsModule</title>
<path fill="none" stroke="black" d="M1955,-122.22C1955,-142.37 1955,-172 1955,-172 1955,-172 4571.16,-172 4571.16,-172"/>
<polygon fill="black" stroke="black" points="4571.16,-175.5 4581.16,-172 4571.16,-168.5 4571.16,-175.5"/>
</g>
<!-- DataTablesComponent  -->
<g id="node41" class="node">
<title>DataTablesComponent </title>
<polygon fill="#fb8072" stroke="black" points="4718.08,-252 4569.92,-252 4569.92,-216 4718.08,-216 4718.08,-252"/>
<text text-anchor="middle" x="4644" y="-229.8" font-family="Times,serif" font-size="14.00">DataTablesComponent </text>
</g>
<!-- HouseholdsModule&#45;&gt;DataTablesComponent  -->
<g id="edge40" class="edge">
<title>HouseholdsModule&#45;&gt;DataTablesComponent </title>
<path fill="none" stroke="black" stroke-dasharray="5,2" d="M4644,-187.11C4644,-187.11 4644,-205.99 4644,-205.99"/>
<polygon fill="black" stroke="black" points="4640.5,-205.99 4644,-215.99 4647.5,-205.99 4640.5,-205.99"/>
</g>
<!-- HouseholdsRoutingModule -->
<g id="node39" class="node">
<title>HouseholdsRoutingModule</title>
<polygon fill="#8dd3c7" stroke="black" points="1822.27,-122 1819.27,-126 1798.27,-126 1795.27,-122 1651.73,-122 1651.73,-86 1822.27,-86 1822.27,-122"/>
<text text-anchor="middle" x="1737" y="-99.8" font-family="Times,serif" font-size="14.00">HouseholdsRoutingModule</text>
</g>
<!-- HouseholdsRoutingModule&#45;&gt;HouseholdsModule -->
<g id="edge38" class="edge">
<title>HouseholdsRoutingModule&#45;&gt;HouseholdsModule</title>
<path fill="none" stroke="black" d="M1737,-122.13C1737,-142.57 1737,-173 1737,-173 1737,-173 4571.26,-173 4571.26,-173"/>
<polygon fill="black" stroke="black" points="4571.26,-176.5 4581.26,-173 4571.26,-169.5 4571.26,-176.5"/>
</g>
<!-- SharedModule -->
<g id="node40" class="node">
<title>SharedModule</title>
<polygon fill="#8dd3c7" stroke="black" points="1633.42,-122 1630.42,-126 1609.42,-126 1606.42,-122 1534.58,-122 1534.58,-86 1633.42,-86 1633.42,-122"/>
<text text-anchor="middle" x="1584" y="-99.8" font-family="Times,serif" font-size="14.00">SharedModule</text>
</g>
<!-- SharedModule&#45;&gt;HouseholdsModule -->
<g id="edge39" class="edge">
<title>SharedModule&#45;&gt;HouseholdsModule</title>
<path fill="none" stroke="black" d="M1584,-122.28C1584,-143.32 1584,-175 1584,-175 1584,-175 4571.14,-175 4571.14,-175"/>
<polygon fill="black" stroke="black" points="4571.14,-178.5 4581.14,-175 4571.14,-171.5 4571.14,-178.5"/>
</g>
<!-- ApplicationsListService -->
<g id="node42" class="node">
<title>ApplicationsListService</title>
<ellipse fill="#fdb462" stroke="black" cx="1407" cy="-104" rx="104.23" ry="18"/>
<text text-anchor="middle" x="1407" y="-99.8" font-family="Times,serif" font-size="14.00">ApplicationsListService</text>
</g>
<!-- ApplicationsListService&#45;&gt;HouseholdsModule -->
<g id="edge41" class="edge">
<title>ApplicationsListService&#45;&gt;HouseholdsModule</title>
<path fill="none" stroke="black" d="M1407,-122.04C1407,-143.66 1407,-177 1407,-177 1407,-177 4571.15,-177 4571.15,-177"/>
<polygon fill="black" stroke="black" points="4571.15,-180.5 4581.15,-177 4571.15,-173.5 4571.15,-180.5"/>
</g>
<!-- CampaignsDetailsService -->
<g id="node43" class="node">
<title>CampaignsDetailsService</title>
<ellipse fill="#fdb462" stroke="black" cx="1174" cy="-104" rx="110.59" ry="18"/>
<text text-anchor="middle" x="1174" y="-99.8" font-family="Times,serif" font-size="14.00">CampaignsDetailsService</text>
</g>
<!-- CampaignsDetailsService&#45;&gt;HouseholdsModule -->
<g id="edge42" class="edge">
<title>CampaignsDetailsService&#45;&gt;HouseholdsModule</title>
<path fill="none" stroke="black" d="M1174,-122.29C1174,-144.21 1174,-178 1174,-178 1174,-178 4571.18,-178 4571.18,-178"/>
<polygon fill="black" stroke="black" points="4571.18,-181.5 4581.18,-178 4571.18,-174.5 4571.18,-181.5"/>
</g>
<!-- CampaignsService -->
<g id="node44" class="node">
<title>CampaignsService</title>
<ellipse fill="#fdb462" stroke="black" cx="962" cy="-104" rx="83.38" ry="18"/>
<text text-anchor="middle" x="962" y="-99.8" font-family="Times,serif" font-size="14.00">CampaignsService</text>
</g>
<!-- CampaignsService&#45;&gt;HouseholdsModule -->
<g id="edge43" class="edge">
<title>CampaignsService&#45;&gt;HouseholdsModule</title>
<path fill="none" stroke="black" d="M962,-122.01C962,-144.49 962,-180 962,-180 962,-180 4571.25,-180 4571.25,-180"/>
<polygon fill="black" stroke="black" points="4571.25,-183.5 4581.25,-180 4571.25,-176.5 4571.25,-183.5"/>
</g>
<!-- CampaignsTemplatesService -->
<g id="node45" class="node">
<title>CampaignsTemplatesService</title>
<ellipse fill="#fdb462" stroke="black" cx="737" cy="-104" rx="123.83" ry="18"/>
<text text-anchor="middle" x="737" y="-99.8" font-family="Times,serif" font-size="14.00">CampaignsTemplatesService</text>
</g>
<!-- CampaignsTemplatesService&#45;&gt;HouseholdsModule -->
<g id="edge44" class="edge">
<title>CampaignsTemplatesService&#45;&gt;HouseholdsModule</title>
<path fill="none" stroke="black" d="M737,-122.25C737,-145.02 737,-181 737,-181 737,-181 4571.05,-181 4571.05,-181"/>
<polygon fill="black" stroke="black" points="4571.05,-184.5 4581.05,-181 4571.05,-177.5 4571.05,-184.5"/>
</g>
<!-- CorrectionService -->
<g id="node46" class="node">
<title>CorrectionService</title>
<ellipse fill="#fdb462" stroke="black" cx="514" cy="-104" rx="81.08" ry="18"/>
<text text-anchor="middle" x="514" y="-99.8" font-family="Times,serif" font-size="14.00">CorrectionService</text>
</g>
<!-- CorrectionService&#45;&gt;HouseholdsModule -->
<g id="edge45" class="edge">
<title>CorrectionService&#45;&gt;HouseholdsModule</title>
<path fill="none" stroke="black" d="M514,-122.32C514,-145.66 514,-183 514,-183 514,-183 4571.19,-183 4571.19,-183"/>
<polygon fill="black" stroke="black" points="4571.19,-186.5 4581.19,-183 4571.19,-179.5 4571.19,-186.5"/>
</g>
<!-- FuzzyMatchingService -->
<g id="node47" class="node">
<title>FuzzyMatchingService</title>
<ellipse fill="#fdb462" stroke="black" cx="314" cy="-104" rx="100.7" ry="18"/>
<text text-anchor="middle" x="314" y="-99.8" font-family="Times,serif" font-size="14.00">FuzzyMatchingService</text>
</g>
<!-- FuzzyMatchingService&#45;&gt;HouseholdsModule -->
<g id="edge46" class="edge">
<title>FuzzyMatchingService&#45;&gt;HouseholdsModule</title>
<path fill="none" stroke="black" d="M314,-122.15C314,-145.76 314,-184 314,-184 314,-184 4571.12,-184 4571.12,-184"/>
<polygon fill="black" stroke="black" points="4571.12,-187.5 4581.12,-184 4571.12,-180.5 4571.12,-187.5"/>
</g>
<!-- HouseholdsService -->
<g id="node48" class="node">
<title>HouseholdsService</title>
<ellipse fill="#fdb462" stroke="black" cx="110" cy="-104" rx="85.67" ry="18"/>
<text text-anchor="middle" x="110" y="-99.8" font-family="Times,serif" font-size="14.00">HouseholdsService</text>
</g>
<!-- HouseholdsService&#45;&gt;HouseholdsModule -->
<g id="edge47" class="edge">
<title>HouseholdsService&#45;&gt;HouseholdsModule</title>
<path fill="none" stroke="black" d="M110,-122.2C110,-146.36 110,-186 110,-186 110,-186 4571.2,-186 4571.2,-186"/>
<polygon fill="black" stroke="black" points="4571.2,-189.5 4581.2,-186 4571.2,-182.5 4571.2,-189.5"/>
</g>
</g>
</svg>
