<?xml version="1.0" encoding="UTF-8" standalone="no"?>
<!DOCTYPE svg PUBLIC "-//W3C//DTD SVG 1.1//EN"
 "http://www.w3.org/Graphics/SVG/1.1/DTD/svg11.dtd">
<!-- Generated by graphviz version 2.47.0 (20210316.0004)
 -->
<!-- Title: dependencies Pages: 1 -->
<svg width="711pt" height="211pt"
 viewBox="0.00 0.00 711.00 211.00" xmlns="http://www.w3.org/2000/svg" xmlns:xlink="http://www.w3.org/1999/xlink">
<g id="graph0" class="graph" transform="scale(1 1) rotate(0) translate(4 207)">
<title>dependencies</title>
<polygon fill="white" stroke="transparent" points="-4,4 -4,-207 707,-207 707,4 -4,4"/>
<text text-anchor="start" x="330.51" y="-42.4" font-family="Times-12" font-weight="bold" font-size="14.00">Legend</text>
<polygon fill="#ffffb3" stroke="transparent" points="117.5,-10 117.5,-30 137.5,-30 137.5,-10 117.5,-10"/>
<text text-anchor="start" x="141.13" y="-15.4" font-family="Times-12" font-size="14.00"> &#160;Declarations</text>
<polygon fill="#8dd3c7" stroke="transparent" points="230.5,-10 230.5,-30 250.5,-30 250.5,-10 230.5,-10"/>
<text text-anchor="start" x="254.23" y="-15.4" font-family="Times-12" font-size="14.00"> &#160;Module</text>
<polygon fill="#80b1d3" stroke="transparent" points="316.5,-10 316.5,-30 336.5,-30 336.5,-10 316.5,-10"/>
<text text-anchor="start" x="340.28" y="-15.4" font-family="Times-12" font-size="14.00"> &#160;Bootstrap</text>
<polygon fill="#fdb462" stroke="transparent" points="413.5,-10 413.5,-30 433.5,-30 433.5,-10 413.5,-10"/>
<text text-anchor="start" x="437.17" y="-15.4" font-family="Times-12" font-size="14.00"> &#160;Providers</text>
<polygon fill="#fb8072" stroke="transparent" points="509.5,-10 509.5,-30 529.5,-30 529.5,-10 509.5,-10"/>
<text text-anchor="start" x="533.23" y="-15.4" font-family="Times-12" font-size="14.00"> &#160;Exports</text>
<g id="clust1" class="cluster">
<title>cluster_SupervisorsModule</title>
<polygon fill="none" stroke="black" stroke-dasharray="1,5" points="8,-70 8,-195 695,-195 695,-70 8,-70"/>
</g>
<g id="clust4" class="cluster">
<title>cluster_SupervisorsModule_imports</title>
<polygon fill="none" stroke="black" points="384,-78 384,-130 687,-130 687,-78 384,-78"/>
</g>
<g id="clust7" class="cluster">
<title>cluster_SupervisorsModule_providers</title>
<polygon fill="none" stroke="black" points="188,-78 188,-130 376,-130 376,-78 188,-78"/>
</g>
<g id="clust2" class="cluster">
<title>cluster_SupervisorsModule_declarations</title>
<polygon fill="none" stroke="black" points="16,-78 16,-130 180,-130 180,-78 16,-78"/>
</g>
<!-- SupervisorsComponent -->
<g id="node1" class="node">
<title>SupervisorsComponent</title>
<polygon fill="#ffffb3" stroke="black" points="171.93,-122 24.07,-122 24.07,-86 171.93,-86 171.93,-122"/>
<text text-anchor="middle" x="98" y="-99.8" font-family="Times,serif" font-size="14.00">SupervisorsComponent</text>
</g>
<!-- SupervisorsModule -->
<g id="node2" class="node">
<title>SupervisorsModule</title>
<polygon fill="#8dd3c7" stroke="black" points="441.65,-187 438.65,-191 417.65,-191 414.65,-187 316.35,-187 316.35,-151 441.65,-151 441.65,-187"/>
<text text-anchor="middle" x="379" y="-164.8" font-family="Times,serif" font-size="14.00">SupervisorsModule</text>
</g>
<!-- SupervisorsComponent&#45;&gt;SupervisorsModule -->
<g id="edge1" class="edge">
<title>SupervisorsComponent&#45;&gt;SupervisorsModule</title>
<path fill="none" stroke="black" d="M98,-122.11C98,-141.34 98,-169 98,-169 98,-169 306.29,-169 306.29,-169"/>
<polygon fill="black" stroke="black" points="306.29,-172.5 316.29,-169 306.29,-165.5 306.29,-172.5"/>
</g>
<!-- SharedModule -->
<g id="node3" class="node">
<title>SharedModule</title>
<polygon fill="#8dd3c7" stroke="black" points="679.42,-122 676.42,-126 655.42,-126 652.42,-122 580.58,-122 580.58,-86 679.42,-86 679.42,-122"/>
<text text-anchor="middle" x="630" y="-99.8" font-family="Times,serif" font-size="14.00">SharedModule</text>
</g>
<!-- SharedModule&#45;&gt;SupervisorsModule -->
<g id="edge2" class="edge">
<title>SharedModule&#45;&gt;SupervisorsModule</title>
<path fill="none" stroke="black" d="M630,-122.11C630,-141.34 630,-169 630,-169 630,-169 451.69,-169 451.69,-169"/>
<polygon fill="black" stroke="black" points="451.69,-165.5 441.69,-169 451.69,-172.5 451.69,-165.5"/>
</g>
<!-- SupervisorsRoutingModule -->
<g id="node4" class="node">
<title>SupervisorsRoutingModule</title>
<polygon fill="#8dd3c7" stroke="black" points="562.27,-122 559.27,-126 538.27,-126 535.27,-122 391.73,-122 391.73,-86 562.27,-86 562.27,-122"/>
<text text-anchor="middle" x="477" y="-99.8" font-family="Times,serif" font-size="14.00">SupervisorsRoutingModule</text>
</g>
<!-- SupervisorsRoutingModule&#45;&gt;SupervisorsModule -->
<g id="edge3" class="edge">
<title>SupervisorsRoutingModule&#45;&gt;SupervisorsModule</title>
<path fill="none" stroke="black" d="M416.72,-122.11C416.72,-122.11 416.72,-140.99 416.72,-140.99"/>
<polygon fill="black" stroke="black" points="413.22,-140.99 416.72,-150.99 420.22,-140.99 413.22,-140.99"/>
</g>
<!-- SupervisorsService -->
<g id="node5" class="node">
<title>SupervisorsService</title>
<ellipse fill="#fdb462" stroke="black" cx="282" cy="-104" rx="85.67" ry="18"/>
<text text-anchor="middle" x="282" y="-99.8" font-family="Times,serif" font-size="14.00">SupervisorsService</text>
</g>
<!-- SupervisorsService&#45;&gt;SupervisorsModule -->
<g id="edge4" class="edge">
<title>SupervisorsService&#45;&gt;SupervisorsModule</title>
<path fill="none" stroke="black" d="M341.88,-117.15C341.88,-117.15 341.88,-140.69 341.88,-140.69"/>
<polygon fill="black" stroke="black" points="338.38,-140.69 341.88,-150.69 345.38,-140.69 338.38,-140.69"/>
</g>
</g>
</svg>
