<?xml version="1.0" encoding="UTF-8" standalone="no"?>
<!DOCTYPE svg PUBLIC "-//W3C//DTD SVG 1.1//EN"
 "http://www.w3.org/Graphics/SVG/1.1/DTD/svg11.dtd">
<!-- Generated by graphviz version 2.47.0 (20210316.0004)
 -->
<!-- Title: dependencies Pages: 1 -->
<svg width="1017pt" height="211pt"
 viewBox="0.00 0.00 1017.00 211.00" xmlns="http://www.w3.org/2000/svg" xmlns:xlink="http://www.w3.org/1999/xlink">
<g id="graph0" class="graph" transform="scale(1 1) rotate(0) translate(4 207)">
<title>dependencies</title>
<polygon fill="white" stroke="transparent" points="-4,4 -4,-207 1013,-207 1013,4 -4,4"/>
<text text-anchor="start" x="483.51" y="-42.4" font-family="Times-12" font-weight="bold" font-size="14.00">Legend</text>
<polygon fill="#ffffb3" stroke="transparent" points="270.5,-10 270.5,-30 290.5,-30 290.5,-10 270.5,-10"/>
<text text-anchor="start" x="294.13" y="-15.4" font-family="Times-12" font-size="14.00"> &#160;Declarations</text>
<polygon fill="#8dd3c7" stroke="transparent" points="383.5,-10 383.5,-30 403.5,-30 403.5,-10 383.5,-10"/>
<text text-anchor="start" x="407.23" y="-15.4" font-family="Times-12" font-size="14.00"> &#160;Module</text>
<polygon fill="#80b1d3" stroke="transparent" points="469.5,-10 469.5,-30 489.5,-30 489.5,-10 469.5,-10"/>
<text text-anchor="start" x="493.28" y="-15.4" font-family="Times-12" font-size="14.00"> &#160;Bootstrap</text>
<polygon fill="#fdb462" stroke="transparent" points="566.5,-10 566.5,-30 586.5,-30 586.5,-10 566.5,-10"/>
<text text-anchor="start" x="590.17" y="-15.4" font-family="Times-12" font-size="14.00"> &#160;Providers</text>
<polygon fill="#fb8072" stroke="transparent" points="662.5,-10 662.5,-30 682.5,-30 682.5,-10 662.5,-10"/>
<text text-anchor="start" x="686.23" y="-15.4" font-family="Times-12" font-size="14.00"> &#160;Exports</text>
<g id="clust1" class="cluster">
<title>cluster_HistoryModule</title>
<polygon fill="none" stroke="black" stroke-dasharray="1,5" points="8,-70 8,-195 1001,-195 1001,-70 8,-70"/>
</g>
<g id="clust2" class="cluster">
<title>cluster_HistoryModule_declarations</title>
<polygon fill="none" stroke="black" points="465,-78 465,-130 993,-130 993,-78 465,-78"/>
</g>
<g id="clust6" class="cluster">
<title>cluster_HistoryModule_imports</title>
<polygon fill="none" stroke="black" points="178,-78 178,-130 457,-130 457,-78 178,-78"/>
</g>
<g id="clust9" class="cluster">
<title>cluster_HistoryModule_providers</title>
<polygon fill="none" stroke="black" points="16,-78 16,-130 170,-130 170,-78 16,-78"/>
</g>
<!-- HistoryComponent -->
<g id="node1" class="node">
<title>HistoryComponent</title>
<polygon fill="#ffffb3" stroke="black" points="984.83,-122 861.17,-122 861.17,-86 984.83,-86 984.83,-122"/>
<text text-anchor="middle" x="923" y="-99.8" font-family="Times,serif" font-size="14.00">HistoryComponent</text>
</g>
<!-- HistoryModule -->
<g id="node4" class="node">
<title>HistoryModule</title>
<polygon fill="#8dd3c7" stroke="black" points="520.54,-187 517.54,-191 496.54,-191 493.54,-187 419.46,-187 419.46,-151 520.54,-151 520.54,-187"/>
<text text-anchor="middle" x="470" y="-164.8" font-family="Times,serif" font-size="14.00">HistoryModule</text>
</g>
<!-- HistoryComponent&#45;&gt;HistoryModule -->
<g id="edge1" class="edge">
<title>HistoryComponent&#45;&gt;HistoryModule</title>
<path fill="none" stroke="black" d="M923,-122.28C923,-143.32 923,-175 923,-175 923,-175 530.65,-175 530.65,-175"/>
<polygon fill="black" stroke="black" points="530.65,-171.5 520.65,-175 530.65,-178.5 530.65,-171.5"/>
</g>
<!-- LandingHistoryComponent -->
<g id="node2" class="node">
<title>LandingHistoryComponent</title>
<polygon fill="#ffffb3" stroke="black" points="842.98,-122 673.02,-122 673.02,-86 842.98,-86 842.98,-122"/>
<text text-anchor="middle" x="758" y="-99.8" font-family="Times,serif" font-size="14.00">LandingHistoryComponent</text>
</g>
<!-- LandingHistoryComponent&#45;&gt;HistoryModule -->
<g id="edge2" class="edge">
<title>LandingHistoryComponent&#45;&gt;HistoryModule</title>
<path fill="none" stroke="black" d="M758,-122.02C758,-139.37 758,-163 758,-163 758,-163 530.83,-163 530.83,-163"/>
<polygon fill="black" stroke="black" points="530.83,-159.5 520.83,-163 530.83,-166.5 530.83,-159.5"/>
</g>
<!-- SpotcheckHistoryComponent -->
<g id="node3" class="node">
<title>SpotcheckHistoryComponent</title>
<polygon fill="#ffffb3" stroke="black" points="654.64,-122 473.36,-122 473.36,-86 654.64,-86 654.64,-122"/>
<text text-anchor="middle" x="564" y="-99.8" font-family="Times,serif" font-size="14.00">SpotcheckHistoryComponent</text>
</g>
<!-- SpotcheckHistoryComponent&#45;&gt;HistoryModule -->
<g id="edge3" class="edge">
<title>SpotcheckHistoryComponent&#45;&gt;HistoryModule</title>
<path fill="none" stroke="black" d="M496.98,-122.11C496.98,-122.11 496.98,-140.99 496.98,-140.99"/>
<polygon fill="black" stroke="black" points="493.48,-140.99 496.98,-150.99 500.48,-140.99 493.48,-140.99"/>
</g>
<!-- HistoryRoutingModule -->
<g id="node5" class="node">
<title>HistoryRoutingModule</title>
<polygon fill="#8dd3c7" stroke="black" points="449.16,-122 446.16,-126 425.16,-126 422.16,-122 302.84,-122 302.84,-86 449.16,-86 449.16,-122"/>
<text text-anchor="middle" x="376" y="-99.8" font-family="Times,serif" font-size="14.00">HistoryRoutingModule</text>
</g>
<!-- HistoryRoutingModule&#45;&gt;HistoryModule -->
<g id="edge4" class="edge">
<title>HistoryRoutingModule&#45;&gt;HistoryModule</title>
<path fill="none" stroke="black" d="M434.28,-122.11C434.28,-122.11 434.28,-140.99 434.28,-140.99"/>
<polygon fill="black" stroke="black" points="430.78,-140.99 434.28,-150.99 437.78,-140.99 430.78,-140.99"/>
</g>
<!-- SharedModule -->
<g id="node6" class="node">
<title>SharedModule</title>
<polygon fill="#8dd3c7" stroke="black" points="284.42,-122 281.42,-126 260.42,-126 257.42,-122 185.58,-122 185.58,-86 284.42,-86 284.42,-122"/>
<text text-anchor="middle" x="235" y="-99.8" font-family="Times,serif" font-size="14.00">SharedModule</text>
</g>
<!-- SharedModule&#45;&gt;HistoryModule -->
<g id="edge5" class="edge">
<title>SharedModule&#45;&gt;HistoryModule</title>
<path fill="none" stroke="black" d="M235,-122.02C235,-139.37 235,-163 235,-163 235,-163 409.3,-163 409.3,-163"/>
<polygon fill="black" stroke="black" points="409.3,-166.5 419.3,-163 409.3,-159.5 409.3,-166.5"/>
</g>
<!-- HistoryService -->
<g id="node7" class="node">
<title>HistoryService</title>
<ellipse fill="#fdb462" stroke="black" cx="93" cy="-104" rx="68.92" ry="18"/>
<text text-anchor="middle" x="93" y="-99.8" font-family="Times,serif" font-size="14.00">HistoryService</text>
</g>
<!-- HistoryService&#45;&gt;HistoryModule -->
<g id="edge6" class="edge">
<title>HistoryService&#45;&gt;HistoryModule</title>
<path fill="none" stroke="black" d="M93,-122.28C93,-143.32 93,-175 93,-175 93,-175 409.16,-175 409.16,-175"/>
<polygon fill="black" stroke="black" points="409.16,-178.5 419.16,-175 409.16,-171.5 409.16,-178.5"/>
</g>
</g>
</svg>
